<?xml version="1.0" encoding="utf-8"?>
<!-- Generator: Adobe Illustrator 16.2.0, SVG Export Plug-In . SVG Version: 6.00 Build 0)  -->
<!DOCTYPE svg PUBLIC "-//W3C//DTD SVG 1.1//EN" "http://www.w3.org/Graphics/SVG/1.1/DTD/svg11.dtd">
<svg version="1.1" id="Слой_1" xmlns="http://www.w3.org/2000/svg" xmlns:xlink="http://www.w3.org/1999/xlink" x="0px" y="0px"
	 width="70px" height="78.6px" viewBox="0 0 70 78.6" style="enable-background:new 0 0 70 78.6;" xml:space="preserve">
<style type="text/css">
<![CDATA[
	.st0{fill:none;stroke:#808D9B;stroke-width:2.3333;stroke-miterlimit:10;}
	
		.st1{fill:none;stroke:#808D9B;stroke-width:2.3333;stroke-linecap:round;stroke-linejoin:round;stroke-miterlimit:10;stroke-dasharray:3.1111,5.4445;}
	.st2{fill:none;stroke:#808D9B;stroke-width:2.3333;stroke-linecap:round;stroke-linejoin:round;stroke-miterlimit:10;}
	.st3{opacity:0.15;fill:#505B68;}
]]>
</style>
<g>
	<path class="st0" d="M50.8,13.6c0.1,0.4,0.2,0.7,0.4,1.1c0.2,0.4,0.4,0.7,0.6,1c0.2,0.3,0.4,0.6,0.6,0.9c0.2,0.3,0.4,0.6,0.6,0.9
		c0.2,0.3,0.4,0.6,0.5,0.9s0.3,0.6,0.4,0.9s0.1,0.7,0.1,1c0,0.4-0.1,0.9-0.3,1.2c-0.2,0.4-0.5,0.7-0.8,0.9c-0.3,0.3-0.7,0.4-1.1,0.6
		c-0.4,0.1-0.8,0.2-1.2,0.3c-0.6,0-1.1-0.2-1.6-0.4c-0.5-0.2-0.9-0.6-1.2-1c-0.3-0.5-0.5-1-0.5-1.6c0-0.5,0.1-0.9,0.3-1.4
		s0.4-0.9,0.7-1.3s0.6-0.8,0.8-1.2c0.3-0.4,0.6-0.8,0.9-1.3C50.4,14.5,50.7,14.1,50.8,13.6z M50.2,21.7"/>
	<path class="st1" d="M11.2,37.9c1-1.2,2.5-3.2,2.6-3.2l0.2-0.2c3.2-3.7,6.2-6.8,12.2-7.3l0.2,0c0,0,0.6,0,1.6-0.1l0-0.2l5.3-0.1
		c0.5,0,1.1,0,1.8,0c0.7,0,1.4,0,1.8,0h5.2l0,0.2c1,0,1.7,0.1,1.7,0.1l0.2,0c6,0.5,9.1,3.6,12.2,7.3l0.2,0.3c0,0,1.7,1.9,2.6,3.1
		c0,0-1-1.1-0.9-1.1"/>
	<path class="st2" d="M62.4,54.7c-0.2-3.7-0.7-5.3-2.6-7.2c0.5,0,1.1-0.1,1.9-0.1c2.6-0.1,2-2,1.9-2.7c-0.1-0.8,0-2.4-2.7-2.2
		c-2.7,0.2-1.5,0-2.7,0.2c-1.1,0.1-2,0.2-2.4,0.6c-2.1-2.4-3.7-4.6-3.7-4.6c-2.8-3.3-4.7-5.1-8.5-5.4c0,0-3.5-0.1-6.6-0.2l0-0.1
		c-0.5,0-1.1,0-1.8,0c-0.7,0-1.3,0-1.8,0l0,0.1c-3.1,0.1-6.6,0.2-6.6,0.2c-3.8,0.3-5.7,2.1-8.5,5.4c0,0-1.7,2.2-3.8,4.6
		c-0.4-0.4-1.1-0.6-2.1-0.6c-1.3-0.1,0,0-2.7-0.2c-2.7-0.2-2.6,1.4-2.7,2.2c-0.1,0.8-0.7,2.6,1.9,2.7c0.7,0,1.2,0.1,1.7,0.1
		c0,0,0,0,0,0c-1.9,1.9-2.5,3.5-2.6,7.3"/>
	<path class="st2" d="M14.4,43.2c2.1,1.3,5.9,1.1,5.9,1.1h15.9"/>
	<path class="st2" d="M55.3,43.2c-2.1,1.3-5.9,1.1-5.9,1.1H33.5"/>
	<path id="XMLID_34_" class="st3" d="M0,23.2v32.3c0,2.5,1.3,4.8,3.5,6.1l28,16.2c2.2,1.2,4.8,1.2,7,0l28-16.2
		c2.2-1.3,3.5-3.6,3.5-6.1V23.2c0-2.5-1.3-4.8-3.5-6.1l-28-16.2c-2.2-1.2-4.8-1.2-7,0l-28,16.2C1.3,18.3,0,20.7,0,23.2z"/>
	<path class="st0" d="M22.5,56.6h-8.6c-0.9,0-1.7-0.8-1.7-1.7v-2c0-0.9,0.8-1.7,1.7-1.7h7.6c1.3,0,2.1,0.8,2.4,1.7
		c0.2,0.6,0.4,1,0.4,1C24.9,55.6,24.1,56.6,22.5,56.6z"/>
	<path class="st0" d="M47.8,56.6h8.6c0.9,0,1.7-0.8,1.7-1.7v-2c0-0.9-0.8-1.7-1.7-1.7h-7.6c-1.3,0-2.1,0.8-2.4,1.7
		c-0.2,0.6-0.4,1-0.4,1C45.5,55.6,46.3,56.6,47.8,56.6z"/>
	<path class="st2" d="M28.2,53.4"/>
	<path class="st2" d="M37.3,53.5"/>
	<line class="st2" x1="43" y1="51.2" x2="27.1" y2="51.2"/>
</g>
</svg>
