<?xml version="1.0" encoding="utf-8"?>
<!-- Generator: Adobe Illustrator 16.2.0, SVG Export Plug-In . SVG Version: 6.00 Build 0)  -->
<!DOCTYPE svg PUBLIC "-//W3C//DTD SVG 1.1//EN" "http://www.w3.org/Graphics/SVG/1.1/DTD/svg11.dtd">
<svg version="1.1" id="Слой_1" xmlns="http://www.w3.org/2000/svg" xmlns:xlink="http://www.w3.org/1999/xlink" x="0px" y="0px"
	 width="70px" height="78.6px" viewBox="0 0 70 78.6" style="enable-background:new 0 0 70 78.6;" xml:space="preserve">
<style type="text/css">
<![CDATA[
	.st0{fill:#808D9B;}
	.st1{fill:none;stroke:#808D9B;stroke-width:2.3333;stroke-miterlimit:10;}
	.st2{fill:none;stroke:#808D9B;stroke-width:2.3333;stroke-linecap:round;stroke-linejoin:round;stroke-miterlimit:10;}
	.st3{opacity:0.15;fill:#505B68;}
]]>
</style>
<g>
	<path class="st1" d="M16.2,49.2"/>
	<path class="st1" d="M25.4,42.5h-7c-0.8,0-1.4-0.6-1.4-1.4v-1.6c0-0.8,0.6-1.4,1.4-1.4h6.1c1.1,0,1.7,0.7,1.9,1.4
		c0.2,0.5,0.3,0.8,0.3,0.8C27.3,41.7,26.7,42.5,25.4,42.5z"/>
	<path id="XMLID_33_" class="st3" d="M0,23.2v32.3c0,2.5,1.3,4.8,3.5,6.1l28,16.2c2.2,1.2,4.8,1.2,7,0l28-16.2
		c2.2-1.3,3.5-3.6,3.5-6.1V23.2c0-2.5-1.3-4.8-3.5-6.1l-28-16.2c-2.2-1.2-4.8-1.2-7,0l-28,16.2C1.3,18.3,0,20.7,0,23.2z"/>
	<path class="st2" d="M30.1,40"/>
	<path class="st2" d="M37.4,40"/>
	<line class="st2" x1="16.7" y1="49.9" x2="26.8" y2="49.9"/>
	<line class="st2" x1="44.8" y1="49.9" x2="51.7" y2="49.9"/>
	<path class="st1" d="M45.1,27.1v-6c0-3.2,2.6-5.8,5.8-5.8l0,0c3.2,0,5.8,2.6,5.8,5.8v6"/>
	<line class="st2" x1="38.5" y1="38.1" x2="29.2" y2="38.1"/>
	<line class="st2" x1="40" y1="41.8" x2="31.9" y2="41.8"/>
	<path class="st2" d="M50.7,44.8c-5.4,0-9.9-4.4-9.9-9.9c0-3.2,1.6-6.1,4-7.9c-1.3-1.3-2.6-2-4.6-2.2c0,0-2.6-0.1-4.9-0.2l0-0.1
		c-0.3,0-0.8,0-1.3,0c-0.5,0-1,0-1.3,0l0,0.1c-2.3,0.1-4.9,0.2-4.9,0.2c-2.8,0.2-4.3,1.6-6.4,4.2c0,0-1.1,1.3-2.6,3.1
		c-0.3,0.2-1.1,0-1.8-0.1c-0.9-0.1,0,0-2-0.1c-2-0.1-1.9,1.1-2,1.7c-0.1,0.6-0.5,2,1.4,2.1c0.5,0,0.9,0,1.2,0.1c0,0,0,0,0,0
		c-1.4,1.5-1.8,2.7-1.9,5.6c-0.1,2.2,0,2.7,0,4.5c0,1.8,0.3,4.1,2.7,4.1v3c0,0.5,0.2,1.2,1.5,1.2H22c1.2,0,1.5-0.7,1.5-1.2v-3
		c4,0,6.9,0,8.6,0c0.2,0,0.6,0,1,0c0.7,0,1.5,0,1.5,0c0.4,0,0.8,0,1,0c1.7,0,4.6,0,8.6,0v3c0,0.5,0.3,1.2,1.5,1.2h4.3
		c1.3,0,1.5-0.7,1.5-1.2v-3c2.4,0,2.7-2.3,2.7-4.1c0-0.7,0-1.3,0-1.8C53.2,44.5,52,44.8,50.7,44.8z"/>
	<g>
		<path class="st0" d="M50.7,30.3c-1.3,0-2.4,1.2-2.4,2.6c0,0.9,0.5,1.8,1.1,2.2v3.7h2.4v-3.7c0.7-0.4,1.2-1.3,1.2-2.3
			C53,31.4,52,30.3,50.7,30.3L50.7,30.3z"/>
	</g>
	<circle class="st2" cx="50.7" cy="34.9" r="9.9"/>
</g>
</svg>
