<?xml version="1.0" encoding="utf-8"?>
<!-- Generator: Adobe Illustrator 16.2.0, SVG Export Plug-In . SVG Version: 6.00 Build 0)  -->
<!DOCTYPE svg PUBLIC "-//W3C//DTD SVG 1.1//EN" "http://www.w3.org/Graphics/SVG/1.1/DTD/svg11.dtd">
<svg version="1.1" id="Слой_1" xmlns="http://www.w3.org/2000/svg" xmlns:xlink="http://www.w3.org/1999/xlink" x="0px" y="0px"
	 width="101.2px" height="90px" viewBox="0 0 101.2 90" style="enable-background:new 0 0 101.2 90;" xml:space="preserve">
<g>
	<path id="XMLID_22_" style="opacity:0.15;fill:#08AB8A;" d="M22,4.5l-20.8,36c-1.6,2.8-1.6,6.2,0,9l20.8,36
		c1.6,2.8,4.6,4.5,7.8,4.5l41.6,0c3.2,0,6.2-1.7,7.8-4.5l20.8-36c1.6-2.8,1.6-6.2,0-9l-20.8-36C77.5,1.7,74.6,0,71.4,0L29.8,0
		C26.6,0,23.6,1.7,22,4.5z"/>
	<path style="fill:none;stroke:#08AB8A;stroke-width:3;stroke-linecap:round;stroke-linejoin:round;stroke-miterlimit:10;" d="
		M66.9,60L65,57.2c-0.6-1.3-2.2-2.2-4-2.2H39.3c-1.8,0-3.5,0.9-4,2.2L33.3,60"/>
	<path style="fill:none;stroke:#08AB8A;stroke-width:3;stroke-linecap:round;stroke-linejoin:round;stroke-miterlimit:10;" d="
		M83.1,54.5c0-2.7,0.1-3.4-0.1-6.8c-0.2-4.5-0.9-6.3-3.1-8.6c0.6,0,1.3-0.1,2.2-0.1c3.1-0.1,2.4-2.3,2.3-3.3c-0.1-1,0-2.8-3.2-2.6
		c-3.3,0.2-1.8,0.1-3.3,0.2c-1.3,0.1-2.4,0.3-2.9,0.8c-2.5-2.9-4.4-5.5-4.4-5.5c-3.3-3.9-5.6-6.1-10.2-6.4c0,0-4.2-0.2-7.9-0.3
		l0-0.1c-0.5,0-1.3,0-2.1,0c-0.9,0-1.6,0-2.1,0l0,0.1c-3.6,0.1-7.9,0.3-7.9,0.3c-4.5,0.4-6.9,2.5-10.2,6.4c0,0-2,2.7-4.5,5.5
		c-0.5-0.4-1.3-0.7-2.5-0.8c-1.5-0.1,0,0-3.3-0.2c-3.3-0.2-3.1,1.7-3.2,2.6c-0.1,0.9-0.9,3.1,2.3,3.3c0.8,0,1.4,0.1,2,0.1
		c0,0,0,0,0,0c-2.2,2.3-2.9,4.2-3.1,8.6c-0.1,3.4-0.1,4.1-0.1,6.8"/>
	<path style="fill:none;stroke:#08AB8A;stroke-width:3;stroke-linecap:round;stroke-linejoin:round;stroke-miterlimit:10;" d="
		M25.8,34c2.5,1.5,7,1.3,7,1.3h19"/>
	<path style="fill:none;stroke:#08AB8A;stroke-width:3;stroke-linecap:round;stroke-linejoin:round;stroke-miterlimit:10;" d="
		M74.6,34c-2.5,1.5-7,1.3-7,1.3h-19"/>
	<path style="fill:none;stroke:#08AB8A;stroke-width:3;stroke-miterlimit:10;" d="M35.5,50H25.2c-1.1,0-2.1-0.9-2.1-2.1v-2.4
		c0-1.1,0.9-2.1,2.1-2.1h9.1c1.6,0,2.5,1,2.8,2.1c0.3,0.7,0.5,1.2,0.5,1.2C38.3,48.8,37.3,50,35.5,50z"/>
	<path style="fill:none;stroke:#08AB8A;stroke-width:3;stroke-miterlimit:10;" d="M65.6,50H76c1.1,0,2.1-0.9,2.1-2.1v-2.4
		c0-1.1-0.9-2.1-2.1-2.1h-9.1c-1.6,0-2.5,1-2.8,2.1c-0.3,0.7-0.5,1.2-0.5,1.2C62.8,48.8,63.8,50,65.6,50z"/>
	<path style="fill:none;stroke:#08AB8A;stroke-width:3;stroke-linecap:round;stroke-linejoin:round;stroke-miterlimit:10;" d="
		M42.3,46.2"/>
	<path style="fill:none;stroke:#08AB8A;stroke-width:3;stroke-linecap:round;stroke-linejoin:round;stroke-miterlimit:10;" d="
		M53.1,46.3"/>
	
		<line style="fill:none;stroke:#08AB8A;stroke-width:3;stroke-linecap:round;stroke-linejoin:round;stroke-miterlimit:10;" x1="59.9" y1="43.5" x2="41" y2="43.5"/>
	
		<line style="fill:none;stroke:#08AB8A;stroke-width:3;stroke-linecap:round;stroke-linejoin:round;stroke-miterlimit:10;" x1="57.9" y1="49.3" x2="43" y2="49.3"/>
	<path style="fill:none;stroke:#08AB8A;stroke-width:3;stroke-linecap:round;stroke-linejoin:round;stroke-miterlimit:10;" d="
		M30.9,50"/>
	<path style="fill:none;stroke:#08AB8A;stroke-width:3;stroke-linecap:round;stroke-linejoin:round;stroke-miterlimit:10;" d="
		M29.3,43.5"/>
</g>
</svg>
