<?xml version="1.0" encoding="utf-8"?>
<!-- Generator: Adobe Illustrator 16.2.0, SVG Export Plug-In . SVG Version: 6.00 Build 0)  -->
<!DOCTYPE svg PUBLIC "-//W3C//DTD SVG 1.1//EN" "http://www.w3.org/Graphics/SVG/1.1/DTD/svg11.dtd">
<svg version="1.1" id="Слой_1" xmlns="http://www.w3.org/2000/svg" xmlns:xlink="http://www.w3.org/1999/xlink" x="0px" y="0px"
	 width="101.2px" height="90px" viewBox="0 0 101.2 90" style="enable-background:new 0 0 101.2 90;" xml:space="preserve">
<polygon style="fill:#08AB8A;" points="51,67.6 53.5,72.7 59.1,73.5 55.1,77.5 56,83 51,80.4 46,83 46.9,76 42.9,73.5 48.5,72.7 "/>
<path style="fill:none;stroke:#08AB8A;stroke-width:3;stroke-linecap:round;stroke-linejoin:round;stroke-miterlimit:10;" d="
	M83.3,60.5c0-2.7,0.1-9.4-0.1-12.7c-0.2-4.5-0.9-6.3-3.1-8.6c0.6,0,1.3-0.1,2.2-0.1c3.1-0.1,2.4-2.3,2.3-3.3c-0.1-1,0-2.8-3.2-2.6
	c-3.3,0.2-1.8,0.1-3.3,0.2c-1.3,0.1-2.4,0.3-2.9,0.8c-2.5-2.9-4.4-5.5-4.4-5.5c-3.3-3.9-5.6-6.1-10.2-6.4c0,0-4.2-0.2-7.9-0.3l0-0.1
	c-0.5,0-1.3,0-2.1,0c-0.9,0-1.6,0-2.1,0l0,0.1c-3.6,0.1-7.9,0.3-7.9,0.3c-4.5,0.4-6.9,2.5-10.2,6.4c0,0-2,2.7-4.5,5.5
	c-0.5-0.4-1.3-0.7-2.5-0.8c-1.5-0.1,0,0-3.3-0.2c-3.3-0.2-3.1,1.7-3.2,2.6c-0.1,0.9-0.9,3.1,2.3,3.3c0.8,0,1.4,0.1,2,0.1
	c0,0,0,0,0,0c-2.2,2.3-2.9,4.2-3.1,8.6C18,51.1,18,57.7,18,60.5"/>
<path style="fill:none;stroke:#08AB8A;stroke-width:3;stroke-linecap:round;stroke-linejoin:round;stroke-miterlimit:10;" d="M26,34
	c2.5,1.5,7,1.3,7,1.3h19"/>
<path style="fill:none;stroke:#08AB8A;stroke-width:3;stroke-linecap:round;stroke-linejoin:round;stroke-miterlimit:10;" d="
	M74.8,34c-2.5,1.5-7,1.3-7,1.3h-19"/>
<path id="XMLID_21_" style="opacity:0.15;fill:#08AB8A;" d="M22,3.5l-20.8,37c-1.6,2.8-1.6,6.2,0,9l20.8,36c1.6,2.8,4.6,4.5,7.8,4.5
	l41.6,0c3.2,0,6.2-1.7,7.8-4.5l20.8-36c1.6-2.8,1.6-6.2,0-9l-20.8-36c-3.1-5.4-3-4.5-7.8-4.5L29.8,0C26.6,0,23.6,0.8,22,3.5z"/>
<path style="fill:none;stroke:#08AB8A;stroke-width:3;stroke-miterlimit:10;" d="M35.7,50.1H25.4c-1.1,0-2.1-0.9-2.1-2.1v-2.4
	c0-1.1,0.9-2.1,2.1-2.1h9.1c1.6,0,2.5,1,2.8,2.1c0.3,0.7,0.5,1.2,0.5,1.2C38.5,48.9,37.6,50.1,35.7,50.1z"/>
<path style="fill:none;stroke:#08AB8A;stroke-width:3;stroke-miterlimit:10;" d="M65.9,50.1h10.3c1.1,0,2.1-0.9,2.1-2.1v-2.4
	c0-1.1-0.9-2.1-2.1-2.1h-9.1c-1.6,0-2.5,1-2.8,2.1c-0.3,0.7-0.5,1.2-0.5,1.2C63.1,48.9,64,50.1,65.9,50.1z"/>
<path style="fill:none;stroke:#08AB8A;stroke-width:3;stroke-linecap:round;stroke-linejoin:round;stroke-miterlimit:10;" d="
	M42.5,46.3"/>
<path style="fill:none;stroke:#08AB8A;stroke-width:3;stroke-linecap:round;stroke-linejoin:round;stroke-miterlimit:10;" d="
	M53.3,46.4"/>
<path style="fill:none;stroke:#08AB8A;stroke-width:3;stroke-linecap:round;stroke-linejoin:round;stroke-miterlimit:10;" d="
	M57.7,50.1H44.3c-1.4,0-2.5,0.9-2.9,2.2L39,61.1h24l-2.4-8.8C60.2,51,59.1,50.1,57.7,50.1z"/>
<path style="fill:none;stroke:#08AB8A;stroke-width:3;stroke-linecap:round;stroke-linejoin:round;stroke-miterlimit:10;" d="
	M35.1,55.3c0,0-4.3,0-6,0c-2.5,0-2.9,0.1-4.6,1.2c-1.5,1.1-1.7,4.5-1.7,4.5h10.8L35.1,55.3z"/>
<path style="fill:none;stroke:#08AB8A;stroke-width:3;stroke-linecap:round;stroke-linejoin:round;stroke-miterlimit:10;" d="
	M66.7,55.3c0,0,4.3,0,6,0c2.5,0,2.9,0.1,4.6,1.2c1.5,1.1,2.1,4.5,2.1,4.5H68.3L66.7,55.3z"/>
<path style="fill:none;stroke:#08AB8A;stroke-width:3;stroke-linecap:round;stroke-linejoin:round;stroke-miterlimit:10;" d="
	M31.1,50.1"/>
<path style="fill:none;stroke:#08AB8A;stroke-width:3;stroke-linecap:round;stroke-linejoin:round;stroke-miterlimit:10;" d="
	M29.5,43.6"/>
<path style="fill:none;stroke:#08AB8A;stroke-width:3;stroke-linecap:round;stroke-linejoin:round;stroke-miterlimit:10;" d="
	M33.3,50.1c-1.8,0-3.3-1.5-3.3-3.3s1.5-3.3,3.3-3.3"/>
<path style="fill:none;stroke:#08AB8A;stroke-width:3;stroke-linecap:round;stroke-linejoin:round;stroke-miterlimit:10;" d="
	M67.6,43.6c1.8,0,3.3,1.5,3.3,3.3s-1.5,3.3-3.3,3.3"/>
<g>
	<path style="fill:none;stroke:#08AB8A;stroke-width:3;stroke-linecap:round;stroke-linejoin:round;stroke-miterlimit:10;" d="
		M29.4,18.3h11.3c1.2,0,2.4-0.3,3.5-0.9c0,0,1.8-1.3,3.1-1.3h7.1c1.2,0,3.1,1.3,3.1,1.3c1,0.6,3.2,0.9,4.4,0.9H72"/>
	
		<line style="fill:none;stroke:#08AB8A;stroke-width:3;stroke-linecap:round;stroke-linejoin:round;stroke-miterlimit:10;" x1="29.1" y1="16.3" x2="27.6" y2="20.1"/>
	
		<line style="fill:none;stroke:#08AB8A;stroke-width:3;stroke-linecap:round;stroke-linejoin:round;stroke-miterlimit:10;" x1="72.4" y1="16.3" x2="74" y2="20.1"/>
</g>
</svg>
