<?xml version="1.0" encoding="utf-8"?>
<!-- Generator: Adobe Illustrator 16.2.0, SVG Export Plug-In . SVG Version: 6.00 Build 0)  -->
<!DOCTYPE svg PUBLIC "-//W3C//DTD SVG 1.1//EN" "http://www.w3.org/Graphics/SVG/1.1/DTD/svg11.dtd">
<svg version="1.1" id="Слой_1" xmlns="http://www.w3.org/2000/svg" xmlns:xlink="http://www.w3.org/1999/xlink" x="0px" y="0px"
	 width="101.2px" height="90px" viewBox="0 0 101.2 90" style="enable-background:new 0 0 101.2 90;" xml:space="preserve">
<g>
	<path id="XMLID_20_" style="opacity:0.15;fill:#08AB8A;" d="M22,4.5l-20.8,36c-1.6,2.8-1.6,6.2,0,9l20.8,36
		c1.6,2.8,4.6,4.5,7.8,4.5l41.6,0c3.2,0,6.2-1.7,7.8-4.5l20.8-36c1.6-2.8,1.6-6.2,0-9l-20.8-36C77.5,1.7,74.6,0,71.4,0L29.8,0
		C26.6,0,23.6,1.7,22,4.5z"/>
	<g>
		<path style="fill:none;stroke:#08AB8A;stroke-width:3;stroke-linecap:round;stroke-linejoin:round;stroke-miterlimit:10;" d="
			M83.1,61.2c0-2.7,0.1-10.1-0.1-13.5c-0.2-4.5-0.9-6.3-3.1-8.6c0.6,0,1.3-0.1,2.2-0.1c3.1-0.1,2.4-2.3,2.3-3.3
			c-0.1-1,0-2.8-3.2-2.6c-3.3,0.2-1.8,0.1-3.3,0.2c-1.3,0.1-2.4,0.3-2.9,0.8c-2.5-2.9-4.4-5.5-4.4-5.5c-3.3-3.9-5.6-6.1-10.2-6.4
			c0,0-4.2-0.2-7.9-0.3l0-0.1c-0.5,0-1.3,0-2.1,0c-0.9,0-1.6,0-2.1,0l0,0.1c-3.6,0.1-7.9,0.3-7.9,0.3c-4.5,0.4-6.9,2.5-10.2,6.4
			c0,0-2,2.7-4.5,5.5c-0.5-0.4-1.3-0.7-2.5-0.8c-1.5-0.1,0,0-3.3-0.2c-3.3-0.2-3.1,1.7-3.2,2.6c-0.1,0.9-0.9,3.1,2.3,3.3
			c0.8,0,1.4,0.1,2,0.1c0,0,0,0,0,0c-2.2,2.3-2.9,4.2-3.1,8.6c-0.1,3.4-0.1,10.7-0.1,13.5"/>
		<path style="fill:none;stroke:#08AB8A;stroke-width:3;stroke-linecap:round;stroke-linejoin:round;stroke-miterlimit:10;" d="
			M25.8,34c2.5,1.5,7,1.3,7,1.3h19"/>
		<path style="fill:none;stroke:#08AB8A;stroke-width:3;stroke-linecap:round;stroke-linejoin:round;stroke-miterlimit:10;" d="
			M74.6,34c-2.5,1.5-7,1.3-7,1.3h-19"/>
		<path style="fill:none;stroke:#08AB8A;stroke-width:3;stroke-miterlimit:10;" d="M35.5,50H25.2c-1.1,0-2.1-0.9-2.1-2.1v-2.4
			c0-1.1,0.9-2.1,2.1-2.1h9.1c1.6,0,2.5,1,2.8,2.1c0.3,0.7,0.5,1.2,0.5,1.2C38.3,48.8,37.3,50,35.5,50z"/>
		<path style="fill:none;stroke:#08AB8A;stroke-width:3;stroke-miterlimit:10;" d="M65.6,50H76c1.1,0,2.1-0.9,2.1-2.1v-2.4
			c0-1.1-0.9-2.1-2.1-2.1h-9.1c-1.6,0-2.5,1-2.8,2.1c-0.3,0.7-0.5,1.2-0.5,1.2C62.8,48.8,63.8,50,65.6,50z"/>
		<path style="fill:none;stroke:#08AB8A;stroke-width:3;stroke-linecap:round;stroke-linejoin:round;stroke-miterlimit:10;" d="
			M42.3,46.2"/>
		<path style="fill:none;stroke:#08AB8A;stroke-width:3;stroke-linecap:round;stroke-linejoin:round;stroke-miterlimit:10;" d="
			M53.1,46.3"/>
		<path style="fill:none;stroke:#08AB8A;stroke-width:3;stroke-linecap:round;stroke-linejoin:round;stroke-miterlimit:10;" d="
			M57.5,50H44.1c-1.4,0-2.5,0.9-2.9,2.2L38.8,61h24l-2.4-8.8C60,50.9,58.8,50,57.5,50z"/>
		<path style="fill:none;stroke:#08AB8A;stroke-width:3;stroke-linecap:round;stroke-linejoin:round;stroke-miterlimit:10;" d="
			M54.1,16h-7.5c-1.8,0-3.5,1-4,2.5l-1.9,3.2H60l-1.9-3.2C57.6,17,56,16,54.1,16z"/>
		
			<line style="fill:none;stroke:#08AB8A;stroke-width:3;stroke-linecap:round;stroke-linejoin:round;stroke-miterlimit:10;" x1="29.3" y1="43.5" x2="30.9" y2="50"/>
		
			<line style="fill:none;stroke:#08AB8A;stroke-width:3;stroke-linecap:round;stroke-linejoin:round;stroke-miterlimit:10;" x1="72.2" y1="43.5" x2="70.7" y2="50"/>
		<g>
			<path style="fill:none;stroke:#08AB8A;stroke-width:3;stroke-linecap:round;stroke-linejoin:round;stroke-miterlimit:10;" d="
				M34.6,55.3c0,0-4.3,0-6,0c-2.5,0-2.9,0.1-4.6,1.2c-1.5,1.1-1.7,4.5-1.7,4.5H33L34.6,55.3z"/>
			<path style="fill:none;stroke:#08AB8A;stroke-width:3;stroke-linecap:round;stroke-linejoin:round;stroke-miterlimit:10;" d="
				M66.2,55.3c0,0,4.3,0,6,0c2.5,0,2.9,0.1,4.6,1.2c1.5,1.1,2.1,4.5,2.1,4.5H67.7L66.2,55.3z"/>
		</g>
	</g>
	<polygon style="fill:#08AB8A;" points="35.5,71.7 37.3,75.4 41.4,76 38.4,78.8 39.1,82.9 35.5,81 31.8,82.9 32.5,78.8 29.5,76 
		33.6,75.4 	"/>
	<polygon style="fill:#08AB8A;" points="49.3,71.7 51.1,75.4 55.2,76 52.3,78.8 53,82.9 49.3,81 45.7,82.9 46.4,78.8 43.4,76 
		47.5,75.4 	"/>
	<polygon style="fill:#08AB8A;" points="63.2,71.7 65,75.4 69.1,76 66.1,78.8 66.8,82.9 63.2,81 59.5,82.9 60.2,78.8 57.3,76 
		61.3,75.4 	"/>
</g>
</svg>
