<?xml version="1.0" encoding="utf-8"?>
<!-- Generator: Adobe Illustrator 16.2.0, SVG Export Plug-In . SVG Version: 6.00 Build 0)  -->
<!DOCTYPE svg PUBLIC "-//W3C//DTD SVG 1.1//EN" "http://www.w3.org/Graphics/SVG/1.1/DTD/svg11.dtd">
<svg version="1.1" id="Слой_1" xmlns="http://www.w3.org/2000/svg" xmlns:xlink="http://www.w3.org/1999/xlink" x="0px" y="0px"
	 width="101.2px" height="90px" viewBox="0 0 101.2 90" style="enable-background:new 0 0 101.2 90;" xml:space="preserve">
<style type="text/css">
<![CDATA[
	.st0{fill:none;stroke:#08AB8A;stroke-width:3;stroke-linecap:round;stroke-miterlimit:10;}
	.st1{opacity:0.15;fill:#08AB8A;}
	.st2{fill:#08AB8A;}
]]>
</style>
<g>
	<path class="st0" d="M44.4,43.3"/>
	<path id="XMLID_1_" class="st1" d="M22,4.5l-20.8,36c-1.6,2.8-1.6,6.2,0,9l20.8,36c1.6,2.8,4.6,4.5,7.8,4.5l41.6,0
		c3.2,0,6.2-1.7,7.8-4.5l20.8-36c1.6-2.8,1.6-6.2,0-9l-20.8-36C77.5,1.7,74.6,0,71.4,0L29.8,0C26.6,0,23.6,1.7,22,4.5z"/>
	<path class="st0" d="M89.2,44.3c-1.1-1.9-3.1-3.7-6.9-4.9c-4-1.3-10.6-2.9-13-3.5c-0.5-0.4-0.9-0.7-1.3-1c-3.2-2.5-5.9-4.6-8.6-5.8
		c-1.3-0.6-5.1-1.9-12.6-2.2c-1.7-0.1-3.2-0.1-4.4-0.1c-4.8,0-8.8,0.4-12.4,2.6l-0.6,0.4c-2,1.2-4.4,2.7-7.2,4.7l0,0
		c-0.7,0.1-1.2,0.1-1.8,0.2c-0.4,0-0.8,0.1-1.3,0.1c-3.9,0.4-7.4,2.7-8.3,5.8"/>
	<path class="st0" d="M79.5,44.7c-4.5-1.5-13.1-3.4-13.1-3.4c-3.8-2.9-6.8-5.5-9.4-6.6c-1.1-0.5-4.5-1.5-10.8-1.8
		c-7.4-0.3-11,0-13.9,1.8c-2,1.2-4.5,2.7-7.4,4.7c-0.6,0.4-1,0.6-1.7,0.7c-1.3,0.2-2.1,0.2-3.3,0.3c-2.6,0.3-3.9,1.3-4.4,4.8
		c-0.3,1.9-0.3,2.8-0.5,5.2c-0.2,3.5,0.4,4.6,1.6,5.2c1.6,0.8,4.4,1,5.1,1c-0.2-0.6-0.4-1.3-0.4-2c-0.1-3.6,2.7-6.7,6.4-6.8
		c3.6-0.1,6.7,2.7,6.8,6.4c0,0.9-0.1,1.7-0.4,2.4h29.3c-0.2-0.6-0.4-1.3-0.4-2c-0.1-3.6,2.7-6.7,6.4-6.8c3.6-0.1,6.7,2.7,6.8,6.4
		c0,0.9-0.1,1.7-0.4,2.4c1.5,0,2.9,0,3.6,0c3,0,3.4-1.5,3.8-3c0.4-1.5,0.9-4.5,0.9-4.5S84.9,46.4,79.5,44.7z"/>
	<circle class="st0" cx="27.9" cy="54.5" r="6.6"/>
	<circle class="st0" cx="69.6" cy="54.5" r="6.6"/>
	<path class="st0" d="M74.6,16.4c0.1,0.5,0.3,0.9,0.6,1.4s0.5,0.9,0.7,1.3c0.3,0.4,0.5,0.8,0.8,1.1s0.5,0.8,0.8,1.1
		c0.2,0.4,0.5,0.7,0.7,1.1c0.2,0.4,0.4,0.8,0.5,1.2c0.1,0.4,0.2,0.9,0.2,1.3c0,0.6-0.1,1.1-0.4,1.6c-0.3,0.5-0.6,0.9-1,1.2
		c-0.4,0.3-0.9,0.6-1.3,0.8c-0.5,0.2-1,0.3-1.5,0.3c-0.7,0-1.4-0.2-2-0.5C72,28,71.5,27.6,71,27c-0.4-0.6-0.6-1.3-0.6-2
		c0-0.6,0.1-1.2,0.3-1.8c0.2-0.6,0.5-1.1,0.9-1.7s0.7-1,1.1-1.5s0.7-1.1,1.1-1.7C74.2,17.6,74.5,17,74.6,16.4z M73.9,26.9"/>
	<polygon class="st2" points="50.6,68.9 52.4,72.6 56.5,73.2 53.5,76.1 54.2,80.1 50.6,78.2 46.9,80.1 47.6,76.1 44.7,73.2 
		48.8,72.6 	"/>
</g>
</svg>
