<?xml version="1.0" encoding="utf-8"?>
<!-- Generator: Adobe Illustrator 16.2.0, SVG Export Plug-In . SVG Version: 6.00 Build 0)  -->
<!DOCTYPE svg PUBLIC "-//W3C//DTD SVG 1.1//EN" "http://www.w3.org/Graphics/SVG/1.1/DTD/svg11.dtd">
<svg version="1.1" id="Слой_1" xmlns="http://www.w3.org/2000/svg" xmlns:xlink="http://www.w3.org/1999/xlink" x="0px" y="0px"
	 width="101.2px" height="90px" viewBox="0 0 101.2 90" style="enable-background:new 0 0 101.2 90;" xml:space="preserve">
<g>
	<polygon style="fill:#08AB8A;" points="51.2,68.9 53,72.6 57.1,73.2 54.1,76.1 54.8,80.1 51.2,78.2 47.5,80.1 48.2,76.1 45.3,73.2 
		49.3,72.6 	"/>
	<path id="XMLID_8_" style="opacity:0.15;fill:#08AB8A;" d="M22,4.5l-20.8,36c-1.6,2.8-1.6,6.2,0,9l20.8,36c1.6,2.8,4.6,4.5,7.8,4.5
		l41.6,0c3.2,0,6.2-1.7,7.8-4.5l20.8-36c1.6-2.8,1.6-6.2,0-9l-20.8-36C77.5,1.7,74.6,0,71.4,0L29.8,0C26.6,0,23.6,1.7,22,4.5z"/>
	<path style="fill:none;stroke:#08AB8A;stroke-width:3;stroke-miterlimit:10;" d="M26.4,57.7"/>
	<path style="fill:none;stroke:#08AB8A;stroke-width:3;stroke-miterlimit:10;" d="M38.3,49.1h-9c-1,0-1.8-0.8-1.8-1.8v-2.1
		c0-1,0.8-1.8,1.8-1.8h7.9c1.4,0,2.1,0.9,2.5,1.8c0.2,0.6,0.4,1,0.4,1C40.7,48.1,39.9,49.1,38.3,49.1z"/>
	<path style="fill:none;stroke:#08AB8A;stroke-width:3;stroke-linecap:round;stroke-linejoin:round;stroke-miterlimit:10;" d="
		M44.2,45.8"/>
	<path style="fill:none;stroke:#08AB8A;stroke-width:3;stroke-linecap:round;stroke-linejoin:round;stroke-miterlimit:10;" d="
		M53.6,45.9"/>
	
		<line style="fill:none;stroke:#08AB8A;stroke-width:3;stroke-linecap:round;stroke-linejoin:round;stroke-miterlimit:10;" x1="27" y1="58.6" x2="40" y2="58.6"/>
	
		<line style="fill:none;stroke:#08AB8A;stroke-width:3;stroke-linecap:round;stroke-linejoin:round;stroke-miterlimit:10;" x1="63.1" y1="58.6" x2="72" y2="58.6"/>
	<path style="fill:none;stroke:#08AB8A;stroke-width:3;stroke-miterlimit:10;" d="M63.5,29.3v-7.7c0-4.1,3.3-7.4,7.4-7.4l0,0
		c4.1,0,7.4,3.3,7.4,7.4v7.7"/>
	
		<line style="fill:none;stroke:#08AB8A;stroke-width:3;stroke-linecap:round;stroke-linejoin:round;stroke-miterlimit:10;" x1="55" y1="43.5" x2="43.1" y2="43.5"/>
	
		<line style="fill:none;stroke:#08AB8A;stroke-width:3;stroke-linecap:round;stroke-linejoin:round;stroke-miterlimit:10;" x1="57" y1="48.2" x2="46.6" y2="48.2"/>
	<path style="fill:none;stroke:#08AB8A;stroke-width:3;stroke-linecap:round;stroke-linejoin:round;stroke-miterlimit:10;" d="
		M70.7,52c-7,0-12.7-5.7-12.7-12.7c0-4.2,2-7.9,5.1-10.2c-1.7-1.7-3.4-2.6-5.9-2.8c0,0-3.4-0.1-6.3-0.2l0-0.1c-0.4,0-1,0-1.7,0
		c-0.7,0-1.3,0-1.7,0l0,0.1c-2.9,0.1-6.3,0.2-6.3,0.2c-3.7,0.3-5.5,2.1-8.2,5.4c0,0-1.4,1.7-3.3,4c-0.3,0.3-1.4,0-2.3-0.1
		c-1.2-0.1,0,0-2.6-0.1c-2.6-0.2-2.5,1.4-2.6,2.2c-0.1,0.8-0.7,2.6,1.8,2.7c0.6,0,1.2,0.1,1.6,0.1c0,0,0,0,0,0
		c-1.8,1.9-2.4,3.5-2.5,7.2c-0.1,2.8,0,3.5,0,5.7c0,2.3,0.3,5.3,3.4,5.3v3.8c0,0.7,0.3,1.6,2,1.6h5.5c1.5,0,2-0.9,2-1.6v-3.8
		c5.2,0,8.9,0,11.1,0c0.3,0,0.8,0,1.3,0c0.9,0,1.9,0,1.9,0c0.5,0,1,0,1.3,0c2.2,0,5.9,0,11.1,0v3.8c0,0.7,0.5,1.6,2,1.6H70
		c1.7,0,2-0.9,2-1.6v-3.8c3.1,0,3.4-3,3.4-5.3c0-1,0-1.6,0-2.3C74,51.7,72.4,52,70.7,52z"/>
	<g>
		<path style="fill:#08AB8A;" d="M70.7,36.5c0,0.1,0,0.1,0,0.3c0,0.1,0,0.2,0,0.2c0-0.1,0-0.1,0-0.2C70.6,36.6,70.7,36.5,70.7,36.5
			 M70.7,33.3c-1.7,0-3,1.5-3,3.4c0,1.2,0.6,2.3,1.5,2.9v4.8h3v-4.7c0.9-0.6,1.6-1.7,1.6-2.9C73.7,34.8,72.4,33.3,70.7,33.3
			L70.7,33.3z"/>
	</g>
	
		<circle style="fill:none;stroke:#08AB8A;stroke-width:3;stroke-linecap:round;stroke-linejoin:round;stroke-miterlimit:10;" cx="70.7" cy="39.3" r="12.7"/>
</g>
</svg>
