<?xml version="1.0" encoding="utf-8"?>
<!-- Generator: Adobe Illustrator 16.2.0, SVG Export Plug-In . SVG Version: 6.00 Build 0)  -->
<!DOCTYPE svg PUBLIC "-//W3C//DTD SVG 1.1//EN" "http://www.w3.org/Graphics/SVG/1.1/DTD/svg11.dtd">
<svg version="1.1" id="Слой_1" xmlns="http://www.w3.org/2000/svg" xmlns:xlink="http://www.w3.org/1999/xlink" x="0px" y="0px"
	 width="101.2px" height="90px" viewBox="0 0 101.2 90" style="enable-background:new 0 0 101.2 90;" xml:space="preserve">
<g>
	<path style="fill:#C4E6DE;stroke:#08AB8A;stroke-width:3;stroke-miterlimit:10;" d="M70.9,11.9c0.1,0.5,0.3,0.9,0.6,1.4
		s0.5,0.9,0.7,1.3c0.3,0.4,0.5,0.8,0.8,1.1c0.3,0.4,0.5,0.8,0.8,1.1c0.2,0.4,0.5,0.7,0.7,1.1c0.2,0.4,0.4,0.8,0.5,1.2
		c0.1,0.4,0.2,0.9,0.2,1.3c0,0.6-0.1,1.1-0.4,1.6c-0.3,0.5-0.6,0.9-1,1.2c-0.4,0.3-0.9,0.6-1.3,0.8s-1,0.3-1.5,0.3
		c-0.7,0-1.4-0.2-2-0.5c-0.6-0.3-1.1-0.7-1.6-1.3c-0.4-0.6-0.6-1.3-0.6-2c0-0.6,0.1-1.2,0.3-1.8c0.2-0.6,0.5-1.1,0.9-1.7
		c0.3-0.5,0.7-1,1.1-1.5c0.4-0.5,0.7-1.1,1.1-1.7C70.4,13.2,70.7,12.5,70.9,11.9z M70.2,22.4"/>
	
		<path style="fill:none;stroke:#08AB8A;stroke-width:3;stroke-linecap:round;stroke-linejoin:round;stroke-miterlimit:10;stroke-dasharray:4,7;" d="
		M19.9,43.2c1.2-1.5,3.3-4.1,3.3-4.1l0.2-0.3c4-4.8,8-8.8,15.7-9.4l0.3,0c0,0,0.8,0,2.1-0.1l0-0.2l6.8-0.1c0.6,0,1.4,0,2.3,0
		c0.9,0,1.8,0,2.3,0h6.7l0,0.3c1.3,0,2.2,0.1,2.2,0.1l0.3,0c7.7,0.6,11.6,4.6,15.7,9.4l0.3,0.4c0,0,2.1,2.5,3.3,4
		c0.1,0-1.3-1.4-1.2-1.5"/>
	<path style="fill:none;stroke:#08AB8A;stroke-width:3;stroke-linecap:round;stroke-linejoin:round;stroke-miterlimit:10;" d="
		M85.8,64.7c-0.2-4.8-0.9-6.8-3.4-9.3c0.6,0,1.4-0.1,2.4-0.1c3.4-0.1,2.6-2.5,2.4-3.5c-0.1-1.1,0-3-3.5-2.8
		c-3.5,0.2-1.9,0.1-3.5,0.2c-1.4,0.1-2.5,0.3-3.1,0.8c-2.7-3.1-4.8-5.9-4.8-5.9c-3.6-4.2-6.1-6.6-11-6.9c0,0-4.6-0.2-8.5-0.3l0-0.1
		c-0.6,0-1.4,0-2.3,0c-0.9,0-1.7,0-2.3,0l0,0.1c-3.9,0.1-8.5,0.3-8.5,0.3c-4.9,0.4-7.4,2.7-11,6.9c0,0-2.2,2.9-4.8,5.9
		c-0.5-0.5-1.4-0.7-2.7-0.8c-1.6-0.1,0,0-3.5-0.2c-3.5-0.2-3.4,1.8-3.5,2.8c-0.1,1-0.9,3.4,2.4,3.5c0.8,0,1.6,0.1,2.1,0.1
		c0,0,0,0,0,0c-2.4,2.5-3.2,4.5-3.4,9.3"/>
	<path style="fill:none;stroke:#08AB8A;stroke-width:3;stroke-linecap:round;stroke-linejoin:round;stroke-miterlimit:10;" d="
		M24.1,50c2.7,1.7,7.6,1.4,7.6,1.4h20.5"/>
	<path style="fill:none;stroke:#08AB8A;stroke-width:3;stroke-linecap:round;stroke-linejoin:round;stroke-miterlimit:10;" d="
		M76.7,50c-2.7,1.7-7.6,1.4-7.6,1.4H48.6"/>
	<path id="XMLID_13_" style="opacity:0.15;fill:#08AB8A;" d="M22,4.5l-20.8,36c-1.6,2.8-1.6,6.2,0,9l20.8,36
		c1.6,2.8,4.6,4.5,7.8,4.5l41.6,0c3.2,0,6.2-1.7,7.8-4.5l20.8-36c1.6-2.8,1.6-6.2,0-9l-20.8-36C77.5,1.7,74.6,0,71.4,0L29.8,0
		C26.6,0,23.6,1.7,22,4.5z"/>
	<path style="fill:none;stroke:#08AB8A;stroke-width:3;stroke-miterlimit:10;" d="M34.5,67.3H23.4c-1.2,0-2.2-1-2.2-2.2v-2.6
		c0-1.2,1-2.2,2.2-2.2h9.8c1.7,0,2.7,1.1,3.1,2.2c0.3,0.8,0.5,1.3,0.5,1.3C37.5,65.9,36.5,67.3,34.5,67.3z"/>
	<path style="fill:none;stroke:#08AB8A;stroke-width:3;stroke-miterlimit:10;" d="M67,67.3h11.1c1.2,0,2.2-1,2.2-2.2v-2.6
		c0-1.2-1-2.2-2.2-2.2h-9.8c-1.7,0-2.7,1.1-3.1,2.2c-0.3,0.8-0.5,1.3-0.5,1.3C64,65.9,65,67.3,67,67.3z"/>
	<path style="fill:none;stroke:#08AB8A;stroke-width:3;stroke-linecap:round;stroke-linejoin:round;stroke-miterlimit:10;" d="
		M41.9,63.2"/>
	<path style="fill:none;stroke:#08AB8A;stroke-width:3;stroke-linecap:round;stroke-linejoin:round;stroke-miterlimit:10;" d="
		M53.5,63.3"/>
	
		<line style="fill:none;stroke:#08AB8A;stroke-width:3;stroke-linecap:round;stroke-linejoin:round;stroke-miterlimit:10;" x1="60.9" y1="60.2" x2="40.5" y2="60.2"/>
</g>
</svg>
