<?xml version="1.0" encoding="utf-8"?>
<!-- Generator: Adobe Illustrator 16.2.0, SVG Export Plug-In . SVG Version: 6.00 Build 0)  -->
<!DOCTYPE svg PUBLIC "-//W3C//DTD SVG 1.1//EN" "http://www.w3.org/Graphics/SVG/1.1/DTD/svg11.dtd">
<svg version="1.1" id="Слой_1" xmlns="http://www.w3.org/2000/svg" xmlns:xlink="http://www.w3.org/1999/xlink" x="0px" y="0px"
	 width="70px" height="78.6px" viewBox="0 0 70 78.6" style="enable-background:new 0 0 70 78.6;" xml:space="preserve">
<style type="text/css">
<![CDATA[
	.st0{fill:none;stroke:#808D9B;stroke-width:2.3333;stroke-linecap:round;stroke-miterlimit:10;}
	.st1{fill:none;stroke:#808D9B;stroke-width:2.2446;stroke-miterlimit:10;}
	.st2{opacity:0.15;fill:#505B68;}
]]>
</style>
<g>
	<path class="st0" d="M30.2,40.5"/>
	<path id="XMLID_28_" class="st2" d="M0,23.2v32.3c0,2.5,1.3,4.8,3.5,6.1l28,16.2c2.2,1.2,4.8,1.2,7,0l28-16.2
		c2.2-1.3,3.5-3.6,3.5-6.1V23.2c0-2.5-1.3-4.8-3.5-6.1l-28-16.2c-2.2-1.2-4.8-1.2-7,0l-28,16.2C1.3,18.3,0,20.7,0,23.2z"/>
	<path class="st0" d="M65,41.3c-0.8-1.4-2.4-2.9-5.4-3.8c-3.1-1-8.2-2.2-10.1-2.7c-0.4-0.3-0.7-0.5-1-0.8c-2.5-1.9-4.6-3.6-6.7-4.5
		c-1-0.4-4-1.5-9.8-1.7c-1.3-0.1-2.5-0.1-3.5-0.1c-3.8,0-6.8,0.3-9.6,2L18.4,30c-1.5,0.9-3.4,2.1-5.6,3.6l0,0
		c-0.5,0.1-0.9,0.1-1.4,0.1c-0.3,0-0.7,0-1,0.1c-3,0.3-5.8,2.1-6.4,4.5"/>
	<path class="st0" d="M57.5,41.6c-3.5-1.2-10.2-2.7-10.2-2.7c-2.9-2.3-5.3-4.3-7.3-5.2c-0.9-0.4-3.5-1.2-8.4-1.4
		c-5.8-0.2-8.5,0-10.8,1.4c-1.6,1-3.5,2.1-5.7,3.7c-0.5,0.3-0.8,0.4-1.3,0.5c-1,0.2-1.6,0.2-2.6,0.2c-2.1,0.2-3,1-3.4,3.8
		c-0.2,1.5-0.3,2.2-0.4,4.1c-0.1,2.7,0.3,3.6,1.2,4.1c1.2,0.6,3.4,0.8,4,0.8c-0.2-0.5-0.3-1-0.3-1.6c-0.1-2.8,2.1-5.2,5-5.3
		c2.8-0.1,5.2,2.1,5.3,5c0,0.7-0.1,1.3-0.3,1.9H45c-0.2-0.5-0.3-1-0.3-1.6c-0.1-2.8,2.1-5.2,5-5.3c2.8-0.1,5.2,2.1,5.3,5
		c0,0.7-0.1,1.3-0.3,1.9c1.2,0,2.2,0,2.8,0c2.3,0,2.6-1.2,2.9-2.3s0.7-3.5,0.7-3.5S61.7,42.9,57.5,41.6z"/>
	<circle class="st0" cx="17.4" cy="49.2" r="5.1"/>
	<circle class="st0" cx="49.8" cy="49.2" r="5.1"/>
	<path class="st1" d="M48.6,26.5c0,0,0.2,0.2-3.8-2.3c-1.2-0.8-1.5-2.1-1.4-3.3v-5.6l5.3-2.7l5.3,2.7v5.7c0,1.1-0.2,2.3-1.6,3.2
		C48.4,26.5,48.6,26.5,48.6,26.5z"/>
</g>
</svg>
