<?xml version="1.0" encoding="utf-8"?>
<!-- Generator: Adobe Illustrator 16.2.0, SVG Export Plug-In . SVG Version: 6.00 Build 0)  -->
<!DOCTYPE svg PUBLIC "-//W3C//DTD SVG 1.1//EN" "http://www.w3.org/Graphics/SVG/1.1/DTD/svg11.dtd">
<svg version="1.1" id="Слой_1" xmlns="http://www.w3.org/2000/svg" xmlns:xlink="http://www.w3.org/1999/xlink" x="0px" y="0px"
	 width="70px" height="78.7px" viewBox="0 0 70 78.7" style="enable-background:new 0 0 70 78.7;" xml:space="preserve">
<style type="text/css">
<![CDATA[
	.st0{fill:#808D9B;}
	.st1{fill:none;stroke:#808D9B;stroke-width:2.3333;stroke-miterlimit:10;}
	.st2{fill:none;stroke:#808D9B;stroke-width:2.3333;stroke-linecap:round;stroke-linejoin:round;stroke-miterlimit:10;}
	.st3{opacity:0.15;fill:#505B68;}
]]>
</style>
<g>
	<polygon class="st0" points="35,60.1 36.4,63 39.6,63.4 37.3,65.7 37.8,68.8 35,67.3 32.2,68.8 32.7,65.7 30.4,63.4 33.6,63 	"/>
	<path id="XMLID_31_" class="st3" d="M38.5,0.9l28,16.2c2.2,1.3,3.5,3.6,3.5,6.1l0,32.3c0,2.5-1.3,4.8-3.5,6.1l-28,16.2
		c-2.2,1.3-4.8,1.3-7,0l-28-16.2C1.3,60.3,0,58,0,55.5l0-32.3c0-2.5,1.3-4.8,3.5-6.1l28-16.2C33.7-0.3,36.3-0.3,38.5,0.9z"/>
	<g>
		<g>
			<line class="st2" x1="42.3" y1="38" x2="27.5" y2="38"/>
			<line class="st2" x1="40.7" y1="42.5" x2="29.1" y2="42.5"/>
		</g>
		<g>
			<path class="st2" d="M28.9,43.4"/>
			<path class="st2" d="M43.7,43.4"/>
			<line class="st2" x1="42.1" y1="47.9" x2="30.5" y2="47.9"/>
		</g>
		<path class="st2" d="M47.1,51.8l-1.5-2.2c-0.4-1-1.7-1.7-3.1-1.7H27.4c-1.4,0-2.7,0.7-3.1,1.7l-1.5,2.2"/>
		<g>
			<circle class="st2" cx="16.2" cy="50.1" r="2.4"/>
			<circle class="st2" cx="53.8" cy="50.1" r="2.4"/>
		</g>
		<path class="st2" d="M60.3,46.7c0-2.1,0.1-2.7,0-5.3c-0.1-3.5-0.7-4.9-2.4-6.7c0.5,0,1-0.1,1.7-0.1c2.4-0.1,1.8-1.8,1.8-2.5
			c-0.1-0.8,0-2.2-2.5-2c-2.5,0.1-1.4,0-2.5,0.1c-1,0.1-1.8,0.2-2.2,0.6c-1.9-2.2-3.4-4.3-3.4-4.3c-2.6-3-4.4-4.7-7.9-5
			c0,0-3.3-0.1-6.1-0.2l0-0.1c-0.4,0-1,0-1.7,0c-0.7,0-1.2,0-1.7,0l0,0.1c-2.8,0.1-6.1,0.2-6.1,0.2c-3.5,0.3-5.3,2-7.9,5
			c0,0-1.6,2.1-3.5,4.3c-0.4-0.3-1-0.5-2-0.6c-1.2-0.1,0,0-2.5-0.1c-2.5-0.1-2.4,1.3-2.5,2c-0.1,0.7-0.7,2.4,1.8,2.5
			c0.6,0,1.1,0.1,1.5,0.1c0,0,0,0,0,0c-1.7,1.8-2.3,3.3-2.4,6.7c-0.1,2.6,0,3.2,0,5.3"/>
		<path class="st2" d="M15.7,30.8c2,1.2,5.5,1,5.5,1h14.8"/>
		<path class="st2" d="M53.7,30.8c-2,1.2-5.5,1-5.5,1H33.4"/>
		<path class="st1" d="M23.3,43.3h-8c-0.9,0-1.6-0.7-1.6-1.6v-1.9c0-0.9,0.7-1.6,1.6-1.6h7c1.2,0,1.9,0.8,2.2,1.6
			c0.2,0.6,0.4,0.9,0.4,0.9C25.4,42.3,24.7,43.3,23.3,43.3z"/>
		<path class="st1" d="M46.7,43.3h8c0.9,0,1.6-0.7,1.6-1.6v-1.9c0-0.9-0.7-1.6-1.6-1.6h-7c-1.2,0-1.9,0.8-2.2,1.6
			c-0.2,0.6-0.4,0.9-0.4,0.9C44.5,42.3,45.3,43.3,46.7,43.3z"/>
		<path class="st2" d="M28.6,40.3"/>
		<path class="st2" d="M37,40.4"/>
		<path class="st2" d="M27.5,38.2"/>
		<path class="st2" d="M42.3,38.2"/>
		<path class="st2" d="M28.9,43.2"/>
		<path class="st2" d="M41.3,43.2"/>
		<path class="st2" d="M19.7,43.3"/>
		<path class="st2" d="M18.5,38.2"/>
		<line class="st2" x1="18.1" y1="38.2" x2="18.6" y2="40.2"/>
		<line class="st2" x1="51.5" y1="38.2" x2="51.1" y2="40.1"/>
	</g>
</g>
</svg>
