<?xml version="1.0" encoding="utf-8"?>
<!-- Generator: Adobe Illustrator 16.2.0, SVG Export Plug-In . SVG Version: 6.00 Build 0)  -->
<!DOCTYPE svg PUBLIC "-//W3C//DTD SVG 1.1//EN" "http://www.w3.org/Graphics/SVG/1.1/DTD/svg11.dtd">
<svg version="1.1" id="Слой_1" xmlns="http://www.w3.org/2000/svg" xmlns:xlink="http://www.w3.org/1999/xlink" x="0px" y="0px"
	 width="45px" height="45px" viewBox="0 0 45 45" style="enable-background:new 0 0 45 45;" xml:space="preserve">
<defs>
	<filter id="Adobe_OpacityMaskFilter" filterUnits="userSpaceOnUse" x="0" y="0" width="45" height="45">
		<feColorMatrix  type="matrix" values="1 0 0 0 0  0 1 0 0 0  0 0 1 0 0  0 0 0 1 0"/>
	</filter>
</defs>
<mask maskUnits="userSpaceOnUse" x="0" y="0" width="45" height="45" id="SVGID_1_">
	<g style="filter:url(#Adobe_OpacityMaskFilter);">
		<g>
			<g id="XMLID_1_">
				<path style="fill:#FFFFFF;" d="M-3.5,11.2V34c0,2.5,1.3,4.8,3.5,6.1l19.8,11.4c2.2,1.2,4.8,1.2,7,0l19.8-11.4
					c2.2-1.3,3.5-3.6,3.5-6.1V11.2c0-2.5-1.3-4.8-3.5-6.1L26.8-6.3c-2.2-1.3-4.8-1.3-7,0L0,5.1C-2.2,6.4-3.5,8.7-3.5,11.2z"/>
			</g>
		</g>
	</g>
</mask>
<g style="mask:url(#SVGID_1_);">
	<image style="overflow:visible;" width="300" height="300" xlink:href="3338A8F3.jpg"  transform="matrix(0.1499 0 0 0.1499 0 0)">
	</image>
</g>
</svg>
