<?xml version="1.0" encoding="UTF-8"?><!DOCTYPE svg PUBLIC "-//W3C//DTD SVG 1.1//EN" "http://www.w3.org/Graphics/SVG/1.1/DTD/svg11.dtd"><svg xmlns="http://www.w3.org/2000/svg"><symbol id="1" viewBox="0 0 70 78.6"><style>.st0,.st1{fill:none;stroke:#08ab8a;stroke-miterlimit:10}.st0{stroke-linecap:round;stroke-width:3}.st1{stroke-width:2.2446}.st2{opacity:.15;fill:#08ab8a}.st3{fill:none;stroke:#08ab8a;stroke-width:2.3333;stroke-linecap:round;stroke-miterlimit:10}.st4{fill:#08ab8a}</style><path id="XMLID_30_" class="st2" d="M0 23.2v32.3c0 2.5 1.3 4.8 3.5 6.1l28 16.2c2.2 1.3 4.8 1.3 7 0l28-16.2c2.2-1.3 3.5-3.6 3.5-6.1V23.2c0-2.5-1.3-4.8-3.5-6.1L38.5.9c-2.2-1.2-4.8-1.2-7 0l-28 16.2C1.3 18.3 0 20.7 0 23.2z"/><path class="st3" d="M65 41.3c-.8-1.4-2.4-2.9-5.4-3.8-3.1-1-8.2-2.2-10.1-2.7-.4-.3-.7-.5-1-.8-2.5-1.9-4.6-3.6-6.7-4.5-1-.4-4-1.5-9.8-1.7-1.3-.1-2.5-.1-3.5-.1-3.8 0-6.8.3-9.6 2l-.5.3c-1.5.9-3.4 2.1-5.6 3.6-.5.1-.9.1-1.4.1-.3 0-.7 0-1 .1-3 .3-5.8 2.1-6.4 4.5"/><path class="st3" d="M57.5 41.6c-3.5-1.2-10.2-2.7-10.2-2.7-2.9-2.3-5.3-4.3-7.3-5.2-.9-.4-3.5-1.2-8.4-1.4-5.8-.2-8.5 0-10.8 1.4-1.6 1-3.5 2.1-5.7 3.7-.5.3-.8.4-1.3.5-1 .2-1.6.2-2.6.2-2.1.2-3 1-3.4 3.8-.2 1.5-.3 2.2-.4 4.1-.1 2.7.3 3.6 1.2 4.1 1.2.7 3.4.8 4 .8-.2-.5-.3-1-.3-1.6-.1-2.8 2.1-5.2 5-5.3s5.2 2.1 5.3 5c0 .7-.1 1.3-.3 1.9H45c-.2-.5-.3-1-.3-1.6-.1-2.8 2.1-5.2 5-5.3s5.2 2.1 5.3 5c0 .7-.1 1.3-.3 1.9h2.8c2.3 0 2.6-1.2 2.9-2.3s.7-3.5.7-3.5.6-2.2-3.6-3.5z"/><circle class="st3" cx="17.4" cy="49.2" r="5.1"/><circle class="st3" cx="49.8" cy="49.2" r="5.1"/><path class="st4" d="M35 57.9l1.4 2.9 3.2.5-2.3 2.2.6 3.2-2.9-1.5-2.8 1.5.5-3.2-2.3-2.2 3.2-.5z"/><path class="st1" d="M48.6 26.5s.2.2-3.8-2.3c-1.2-.8-1.5-2.1-1.4-3.3v-5.6l5.3-2.7 5.3 2.7V21c0 1.1-.2 2.3-1.6 3.2-4 2.3-3.8 2.3-3.8 2.3z"/></symbol><symbol id="2" viewBox="0 0 70 78.6"><style>.st0{fill:none;stroke:#08ab8a;stroke-width:2.3333;stroke-linecap:round;stroke-linejoin:round;stroke-miterlimit:10;stroke-dasharray:3.1111,5.4445}.st1{opacity:.15;fill:#08ab8a}.st2,.st3{fill:none;stroke:#08ab8a;stroke-width:2.3333;stroke-miterlimit:10}.st3{stroke-linecap:round;stroke-linejoin:round}</style><path class="st2" d="M50.8 13.6c.1.4.2.7.4 1.1s.4.7.6 1l.6.9.6.9c.2.3.4.6.5.9s.3.6.4.9.1.7.1 1c0 .4-.1.9-.3 1.2-.2.4-.5.7-.8.9-.3.3-.7.4-1.1.6l-1.2.3c-.6 0-1.1-.2-1.6-.4s-.9-.6-1.2-1c-.3-.5-.5-1-.5-1.6 0-.5.1-.9.3-1.4s.4-.9.7-1.3c.3-.4.6-.8.8-1.2.3-.4.6-.8.9-1.3.4-.6.7-1 .8-1.5zm-.6 8.1"/><path class="st0" d="M11.2 37.9c1-1.2 2.5-3.2 2.6-3.2l.2-.2c3.2-3.7 6.2-6.8 12.2-7.3h.2s.6 0 1.6-.1v-.2l5.3-.1h8.8v.2c1 0 1.7.1 1.7.1h.2c6 .5 9.1 3.6 12.2 7.3l.2.3s1.7 1.9 2.6 3.1c0 0-1-1.1-.9-1.1"/><path class="st3" d="M62.4 54.7c-.2-3.7-.7-5.3-2.6-7.2.5 0 1.1-.1 1.9-.1 2.6-.1 2-2 1.9-2.7-.1-.8 0-2.4-2.7-2.2-2.7.2-1.5 0-2.7.2-1.1.1-2 .2-2.4.6-2.1-2.4-3.7-4.6-3.7-4.6-2.8-3.3-4.7-5.1-8.5-5.4 0 0-3.5-.1-6.6-.2V33h-3.6v.1c-3.1.1-6.6.2-6.6.2-3.8.3-5.7 2.1-8.5 5.4 0 0-1.7 2.2-3.8 4.6-.4-.4-1.1-.6-2.1-.6-1.3-.1 0 0-2.7-.2S7.1 43.9 7 44.7c-.1.8-.7 2.6 1.9 2.7.7 0 1.2.1 1.7.1C8.7 49.4 8.1 51 8 54.8"/><path class="st3" d="M14.4 43.2c2.1 1.3 5.9 1.1 5.9 1.1h15.9"/><path class="st3" d="M55.3 43.2c-2.1 1.3-5.9 1.1-5.9 1.1H33.5"/><path id="XMLID_35_" class="st1" d="M0 23.2v32.3c0 2.5 1.3 4.8 3.5 6.1l28 16.2c2.2 1.3 4.8 1.3 7 0l28-16.2c2.2-1.3 3.5-3.6 3.5-6.1V23.2c0-2.5-1.3-4.8-3.5-6.1L38.5.9c-2.2-1.2-4.8-1.2-7 0l-28 16.2C1.3 18.3 0 20.7 0 23.2z"/><path class="st2" d="M22.5 56.6h-8.6c-.9 0-1.7-.8-1.7-1.7v-2c0-.9.8-1.7 1.7-1.7h7.6c1.3 0 2.1.8 2.4 1.7.2.6.4 1 .4 1 .6 1.7-.2 2.7-1.8 2.7zM47.8 56.6h8.6c.9 0 1.7-.8 1.7-1.7v-2c0-.9-.8-1.7-1.7-1.7h-7.6c-1.3 0-2.1.8-2.4 1.7-.2.6-.4 1-.4 1-.5 1.7.3 2.7 1.8 2.7z"/><path class="st3" d="M43 51.2H27.1"/></symbol><symbol id="3" viewBox="0 0 70 78.6"><style>.st0,.st1{fill:none;stroke:#808d9b;stroke-miterlimit:10}.st0{stroke-linecap:round;stroke-width:2.3333}.st1{stroke-width:2.2446}.st2{opacity:.15;fill:#505b68}</style><path id="XMLID_28_" class="st2" d="M0 23.2v32.3c0 2.5 1.3 4.8 3.5 6.1l28 16.2c2.2 1.2 4.8 1.2 7 0l28-16.2c2.2-1.3 3.5-3.6 3.5-6.1V23.2c0-2.5-1.3-4.8-3.5-6.1L38.5.9c-2.2-1.2-4.8-1.2-7 0l-28 16.2C1.3 18.3 0 20.7 0 23.2z"/><path class="st0" d="M65 41.3c-.8-1.4-2.4-2.9-5.4-3.8-3.1-1-8.2-2.2-10.1-2.7-.4-.3-.7-.5-1-.8-2.5-1.9-4.6-3.6-6.7-4.5-1-.4-4-1.5-9.8-1.7-1.3-.1-2.5-.1-3.5-.1-3.8 0-6.8.3-9.6 2l-.5.3c-1.5.9-3.4 2.1-5.6 3.6-.5.1-.9.1-1.4.1-.3 0-.7 0-1 .1-3 .3-5.8 2.1-6.4 4.5"/><path class="st0" d="M57.5 41.6c-3.5-1.2-10.2-2.7-10.2-2.7-2.9-2.3-5.3-4.3-7.3-5.2-.9-.4-3.5-1.2-8.4-1.4-5.8-.2-8.5 0-10.8 1.4-1.6 1-3.5 2.1-5.7 3.7-.5.3-.8.4-1.3.5-1 .2-1.6.2-2.6.2-2.1.2-3 1-3.4 3.8-.2 1.5-.3 2.2-.4 4.1-.1 2.7.3 3.6 1.2 4.1 1.2.6 3.4.8 4 .8-.2-.5-.3-1-.3-1.6-.1-2.8 2.1-5.2 5-5.3 2.8-.1 5.2 2.1 5.3 5 0 .7-.1 1.3-.3 1.9H45c-.2-.5-.3-1-.3-1.6-.1-2.8 2.1-5.2 5-5.3 2.8-.1 5.2 2.1 5.3 5 0 .7-.1 1.3-.3 1.9h2.8c2.3 0 2.6-1.2 2.9-2.3s.7-3.5.7-3.5.6-2.2-3.6-3.5z"/><circle class="st0" cx="17.4" cy="49.2" r="5.1"/><circle class="st0" cx="49.8" cy="49.2" r="5.1"/><path class="st1" d="M48.6 26.5s.2.2-3.8-2.3c-1.2-.8-1.5-2.1-1.4-3.3v-5.6l5.3-2.7 5.3 2.7V21c0 1.1-.2 2.3-1.6 3.2-4 2.3-3.8 2.3-3.8 2.3z"/></symbol><symbol id="4" viewBox="0 0 70 78.6"><style>.st0{fill:none;stroke:#808d9b;stroke-width:2.3333;stroke-miterlimit:10}.st1{stroke-dasharray:3.1111,5.4445}.st1,.st2{fill:none;stroke:#808d9b;stroke-width:2.3333;stroke-linecap:round;stroke-linejoin:round;stroke-miterlimit:10}.st3{opacity:.15;fill:#505b68}</style><path class="st0" d="M50.8 13.6c.1.4.2.7.4 1.1.2.4.4.7.6 1l.6.9.6.9c.2.3.4.6.5.9s.3.6.4.9.1.7.1 1c0 .4-.1.9-.3 1.2-.2.4-.5.7-.8.9-.3.3-.7.4-1.1.6l-1.2.3c-.6 0-1.1-.2-1.6-.4s-.9-.6-1.2-1c-.3-.5-.5-1-.5-1.6 0-.5.1-.9.3-1.4s.4-.9.7-1.3.6-.8.8-1.2c.3-.4.6-.8.9-1.3.4-.6.7-1 .8-1.5zm-.6 8.1"/><path class="st1" d="M11.2 37.9c1-1.2 2.5-3.2 2.6-3.2l.2-.2c3.2-3.7 6.2-6.8 12.2-7.3h.2s.6 0 1.6-.1v-.2l5.3-.1h8.8v.2c1 0 1.7.1 1.7.1h.2c6 .5 9.1 3.6 12.2 7.3l.2.3s1.7 1.9 2.6 3.1c0 0-1-1.1-.9-1.1"/><path class="st2" d="M62.4 54.7c-.2-3.7-.7-5.3-2.6-7.2.5 0 1.1-.1 1.9-.1 2.6-.1 2-2 1.9-2.7-.1-.8 0-2.4-2.7-2.2-2.7.2-1.5 0-2.7.2-1.1.1-2 .2-2.4.6-2.1-2.4-3.7-4.6-3.7-4.6-2.8-3.3-4.7-5.1-8.5-5.4 0 0-3.5-.1-6.6-.2V33h-3.6v.1c-3.1.1-6.6.2-6.6.2-3.8.3-5.7 2.1-8.5 5.4 0 0-1.7 2.2-3.8 4.6-.4-.4-1.1-.6-2.1-.6-1.3-.1 0 0-2.7-.2S7.1 43.9 7 44.7c-.1.8-.7 2.6 1.9 2.7.7 0 1.2.1 1.7.1C8.7 49.4 8.1 51 8 54.8"/><path class="st2" d="M14.4 43.2c2.1 1.3 5.9 1.1 5.9 1.1h15.9"/><path class="st2" d="M55.3 43.2c-2.1 1.3-5.9 1.1-5.9 1.1H33.5"/><path id="XMLID_34_" class="st3" d="M0 23.2v32.3c0 2.5 1.3 4.8 3.5 6.1l28 16.2c2.2 1.2 4.8 1.2 7 0l28-16.2c2.2-1.3 3.5-3.6 3.5-6.1V23.2c0-2.5-1.3-4.8-3.5-6.1L38.5.9c-2.2-1.2-4.8-1.2-7 0l-28 16.2C1.3 18.3 0 20.7 0 23.2z"/><path class="st0" d="M22.5 56.6h-8.6c-.9 0-1.7-.8-1.7-1.7v-2c0-.9.8-1.7 1.7-1.7h7.6c1.3 0 2.1.8 2.4 1.7.2.6.4 1 .4 1 .6 1.7-.2 2.7-1.8 2.7zM47.8 56.6h8.6c.9 0 1.7-.8 1.7-1.7v-2c0-.9-.8-1.7-1.7-1.7h-7.6c-1.3 0-2.1.8-2.4 1.7-.2.6-.4 1-.4 1-.5 1.7.3 2.7 1.8 2.7z"/><path class="st2" d="M43 51.2H27.1"/></symbol><symbol id="5" viewBox="0 0 70 78.6"><style>.st0{fill:#808d9b}.st1,.st2{fill:none;stroke:#808d9b;stroke-width:2.3333;stroke-miterlimit:10}.st2{stroke-linecap:round;stroke-linejoin:round}.st3{opacity:.15;fill:#505b68}</style><path class="st1" d="M25.4 42.5h-7c-.8 0-1.4-.6-1.4-1.4v-1.6c0-.8.6-1.4 1.4-1.4h6.1c1.1 0 1.7.7 1.9 1.4.2.5.3.8.3.8.6 1.4 0 2.2-1.3 2.2z"/><path id="XMLID_33_" class="st3" d="M0 23.2v32.3c0 2.5 1.3 4.8 3.5 6.1l28 16.2c2.2 1.2 4.8 1.2 7 0l28-16.2c2.2-1.3 3.5-3.6 3.5-6.1V23.2c0-2.5-1.3-4.8-3.5-6.1L38.5.9c-2.2-1.2-4.8-1.2-7 0l-28 16.2C1.3 18.3 0 20.7 0 23.2z"/><path class="st2" d="M16.7 49.9h10.1M44.8 49.9h6.9"/><path class="st1" d="M45.1 27.1v-6c0-3.2 2.6-5.8 5.8-5.8 3.2 0 5.8 2.6 5.8 5.8v6"/><path class="st2" d="M38.5 38.1h-9.3M40 41.8h-8.1M50.7 44.8c-5.4 0-9.9-4.4-9.9-9.9 0-3.2 1.6-6.1 4-7.9-1.3-1.3-2.6-2-4.6-2.2 0 0-2.6-.1-4.9-.2v-.1h-2.6v.1c-2.3.1-4.9.2-4.9.2-2.8.2-4.3 1.6-6.4 4.2 0 0-1.1 1.3-2.6 3.1-.3.2-1.1 0-1.8-.1-.9-.1 0 0-2-.1s-1.9 1.1-2 1.7c-.1.6-.5 2 1.4 2.1.5 0 .9 0 1.2.1-1.4 1.5-1.8 2.7-1.9 5.6-.1 2.2 0 2.7 0 4.5 0 1.8.3 4.1 2.7 4.1v3c0 .5.2 1.2 1.5 1.2H22c1.2 0 1.5-.7 1.5-1.2v-3h20.7v3c0 .5.3 1.2 1.5 1.2H50c1.3 0 1.5-.7 1.5-1.2v-3c2.4 0 2.7-2.3 2.7-4.1v-1.8c-1 .4-2.2.7-3.5.7z"/><path class="st0" d="M50.7 30.3c-1.3 0-2.4 1.2-2.4 2.6 0 .9.5 1.8 1.1 2.2v3.7h2.4v-3.7c.7-.4 1.2-1.3 1.2-2.3 0-1.4-1-2.5-2.3-2.5z"/><circle class="st2" cx="50.7" cy="34.9" r="9.9"/></symbol><symbol id="6" viewBox="0 0 70 78.6"><style>.st0{fill:#808d9b}.st1{stroke:#808d9b}.st1,.st2,.st3{fill:none;stroke-width:2.3333;stroke-miterlimit:10}.st2{stroke-linecap:round;stroke-linejoin:round;stroke:#808d9b}.st3{stroke:#08ab8a}.st4{opacity:.15;fill:#505b68}</style><path class="st0" d="M35.5 57.9l1.4 2.9 3.2.5-2.3 2.2.5 3.2-2.8-1.5-2.9 1.5.6-3.2-2.3-2.2 3.2-.5z"/><path id="XMLID_32_" class="st4" d="M0 23.2v32.3c0 2.5 1.3 4.8 3.5 6.1l28 16.2c2.2 1.2 4.8 1.2 7 0l28-16.2c2.2-1.3 3.5-3.6 3.5-6.1V23.2c0-2.5-1.3-4.8-3.5-6.1L38.5.9c-2.2-1.2-4.8-1.2-7 0l-28 16.2C1.3 18.3 0 20.7 0 23.2z"/><path class="st1" d="M25.4 42.5h-7c-.8 0-1.4-.6-1.4-1.4v-1.6c0-.8.6-1.4 1.4-1.4h6.1c1.1 0 1.7.7 1.9 1.4.2.5.3.8.3.8.6 1.4 0 2.2-1.3 2.2z"/><path class="st2" d="M16.7 49.9h10.1M44.8 49.9h6.9"/><path class="st1" d="M45.1 27.1v-6c0-3.2 2.6-5.8 5.8-5.8 3.2 0 5.8 2.6 5.8 5.8v6"/><path class="st2" d="M38.5 38.1h-9.3M40 41.8h-8.1M50.7 44.8c-5.4 0-9.9-4.4-9.9-9.9 0-3.2 1.6-6.1 4-7.9-1.3-1.3-2.6-2-4.6-2.2 0 0-2.6-.1-4.9-.2v-.1h-2.6v.1c-2.3.1-4.9.2-4.9.2-2.8.2-4.3 1.6-6.4 4.2 0 0-1.1 1.3-2.6 3.1-.3.2-1.1 0-1.8-.1-.9-.1 0 0-2-.1s-1.9 1.1-2 1.7c-.1.6-.5 2 1.4 2.1.5 0 .9 0 1.2.1-1.4 1.5-1.8 2.7-1.9 5.6-.1 2.2 0 2.7 0 4.5 0 1.8.3 4.1 2.7 4.1v3c0 .5.2 1.2 1.5 1.2H22c1.2 0 1.5-.7 1.5-1.2v-3h20.7v3c0 .5.3 1.2 1.5 1.2H50c1.3 0 1.5-.7 1.5-1.2v-3c2.4 0 2.7-2.3 2.7-4.1v-1.8c-1 .4-2.2.7-3.5.7z"/><path class="st0" d="M50.7 30.3c-1.3 0-2.4 1.2-2.4 2.6 0 .9.5 1.8 1.1 2.2v3.7h2.4v-3.7c.7-.4 1.2-1.3 1.2-2.3 0-1.4-1-2.5-2.3-2.5z"/><circle class="st2" cx="50.7" cy="34.9" r="9.9"/></symbol><symbol id="7" viewBox="0 0 70 78.7"><style>.st0{fill:#808d9b}.st1,.st2{fill:none;stroke:#808d9b;stroke-width:2.3333;stroke-miterlimit:10}.st2{stroke-linecap:round;stroke-linejoin:round}.st3{opacity:.15;fill:#505b68}</style><path class="st0" d="M35 60.1l1.4 2.9 3.2.4-2.3 2.3.5 3.1-2.8-1.5-2.8 1.5.5-3.1-2.3-2.3 3.2-.4z"/><path id="XMLID_31_" class="st3" d="M38.5.9l28 16.2c2.2 1.3 3.5 3.6 3.5 6.1v32.3c0 2.5-1.3 4.8-3.5 6.1l-28 16.2c-2.2 1.3-4.8 1.3-7 0l-28-16.2C1.3 60.3 0 58 0 55.5V23.2c0-2.5 1.3-4.8 3.5-6.1L31.5.9c2.2-1.2 4.8-1.2 7 0z"/><path class="st2" d="M42.3 38H27.5M40.7 42.5H29.1M42.1 47.9H30.5M47.1 51.8l-1.5-2.2c-.4-1-1.7-1.7-3.1-1.7H27.4c-1.4 0-2.7.7-3.1 1.7l-1.5 2.2"/><circle class="st2" cx="16.2" cy="50.1" r="2.4"/><circle class="st2" cx="53.8" cy="50.1" r="2.4"/><path class="st2" d="M60.3 46.7c0-2.1.1-2.7 0-5.3-.1-3.5-.7-4.9-2.4-6.7.5 0 1-.1 1.7-.1 2.4-.1 1.8-1.8 1.8-2.5-.1-.8 0-2.2-2.5-2-2.5.1-1.4 0-2.5.1-1 .1-1.8.2-2.2.6-1.9-2.2-3.4-4.3-3.4-4.3-2.6-3-4.4-4.7-7.9-5 0 0-3.3-.1-6.1-.2v-.1h-3.4v.1c-2.8.1-6.1.2-6.1.2-3.5.3-5.3 2-7.9 5 0 0-1.6 2.1-3.5 4.3-.4-.3-1-.5-2-.6-1.2-.1 0 0-2.5-.1s-2.4 1.3-2.5 2c-.1.7-.7 2.4 1.8 2.5.6 0 1.1.1 1.5.1-1.7 1.8-2.3 3.3-2.4 6.7-.1 2.6 0 3.2 0 5.3"/><path class="st2" d="M15.7 30.8c2 1.2 5.5 1 5.5 1H36"/><path class="st2" d="M53.7 30.8c-2 1.2-5.5 1-5.5 1H33.4"/><path class="st1" d="M23.3 43.3h-8c-.9 0-1.6-.7-1.6-1.6v-1.9c0-.9.7-1.6 1.6-1.6h7c1.2 0 1.9.8 2.2 1.6.2.6.4.9.4.9.5 1.6-.2 2.6-1.6 2.6zM46.7 43.3h8c.9 0 1.6-.7 1.6-1.6v-1.9c0-.9-.7-1.6-1.6-1.6h-7c-1.2 0-1.9.8-2.2 1.6-.2.6-.4.9-.4.9-.6 1.6.2 2.6 1.6 2.6z"/><path class="st2" d="M18.1 38.2l.5 2M51.5 38.2l-.4 1.9"/></symbol><symbol id="arrow-down" viewBox="0 0 16 9"><style>.st0{fill:none;stroke:#808d9b;stroke-width:2;stroke-linecap:round;stroke-linejoin:round;stroke-miterlimit:10}</style><path class="st0" d="M15 1L8 8 1 1"/></symbol><symbol id="arrow-right" viewBox="0 0 9 16"><style>.st0{fill:none;stroke:#808d9b;stroke-width:2;stroke-linecap:round;stroke-linejoin:round;stroke-miterlimit:10}</style><path class="st0" d="M1 1l7 7-7 7"/></symbol><symbol id="check" viewBox="0 0 21.3 15"><style>.st0{fill:none;stroke:#08ab8a;stroke-width:3;stroke-linecap:round;stroke-linejoin:round;stroke-miterlimit:10}</style><path class="st0" d="M19.8 1.5l-12 12-6.3-6.2"/></symbol><symbol id="login" viewBox="0 0 24 20.3"><style>.st0{opacity:.5;fill:#505b68}</style><path class="st0" d="M14.8 20c-.7.2-1.3.3-1.8.3H7.4c-2 0-3.8-.7-5.2-2.2S0 15 0 12.9V7.4c0-2 .7-3.8 2.2-5.2C3.6.7 5.4 0 7.4 0h1.7c1.1 0 2.3.1 3.6.1 1.2 0 1.9.1 2.1.1v3.4H5.5c-.5.1-.9.3-1.3.6-.3.4-.5.8-.5 1.3v9.2c0 .5.2.9.5 1.3.4.4.8.5 1.3.5h9.2V20zm9.2-9.8l-7.4-6.5v3.7h-5.5v5.5h5.5v3.7l7.4-6.4z"/></symbol><symbol id="more" viewBox="0 0 18.5 17.5"><style>.st0{opacity:.5;fill:#fff}</style><path class="st0" d="M10.8 14.7v1.5c0 .2-.1.4-.2.5-.2.2-.3.3-.6.3H.8c-.2 0-.4-.1-.5-.2s-.3-.4-.3-.6v-1.5c0-.2.1-.4.2-.5s.3-.2.5-.2H10c.2 0 .4.1.5.2.2.1.3.3.3.5zM17 10v1.5c0 .2-.1.4-.2.5-.1.1-.3.2-.5.2H.8c-.2 0-.4-.1-.5-.2-.2 0-.3-.2-.3-.4V10c0-.2.1-.4.2-.5s.3-.2.5-.2h15.5c.2 0 .4.1.5.2s.3.3.3.5zm-3.1-4.6V7c0 .2-.1.4-.2.5-.1.1-.3.2-.5.2H.8c-.2 0-.4-.1-.5-.2C.1 7.4 0 7.2 0 7V5.4c0-.2.1-.4.2-.5.1-.2.3-.2.5-.2h12.4c.2 0 .4.1.5.2.2.1.3.3.3.5zM18.5.8v1.5c0 .2-.1.4-.2.5-.1.2-.3.3-.5.3H.8c-.2 0-.4-.1-.6-.2S0 2.5 0 2.3V.8C0 .6.1.4.2.3.4.1.6 0 .8 0h17c.2 0 .4.1.5.2.2.2.2.4.2.6z"/><path class="st0" d="M10.8 15.2v1.5c0 .2-.1.4-.2.5-.1.1-.3.2-.5.2H.8c-.2 0-.4-.1-.5-.2s-.3-.3-.3-.5v-1.5c0-.2.1-.4.2-.5s.3-.2.5-.2H10c.2 0 .4.1.5.2.2.1.3.3.3.5zm6.2-4.7V12c0 .2-.1.4-.2.5-.1.1-.3.2-.5.2H.8c-.2 0-.4-.1-.5-.2-.2 0-.3-.2-.3-.4v-1.5c0-.2.1-.4.2-.5s.3-.2.5-.2h15.5c.2 0 .4.1.5.2s.3.2.3.4zm-3.1-4.6v1.5c0 .2-.1.4-.2.5-.1.1-.3.2-.5.2H.8c-.2.1-.4.1-.6-.1-.1-.1-.2-.3-.2-.5V5.9c0-.2.1-.4.2-.5.1-.2.3-.2.5-.2h12.4c.2 0 .4.1.5.2.2.1.3.3.3.5zm4.6-4.6v1.5c0 .2-.1.4-.2.5-.1.1-.3.2-.5.2H.8c-.2 0-.4-.1-.5-.2S0 3 0 2.8V1.3C0 1.1.1.9.2.8.3.6.5.6.7.6h17c.2 0 .4.1.5.2.3.1.3.3.3.5z"/></symbol><symbol id="order" viewBox="0 0 21 12"><style>.st0{fill:#505b68;stroke:#808d9b;stroke-width:2;stroke-linecap:round;stroke-miterlimit:10}</style><path class="st0" d="M1 1h19M1 6h15.4M1 11h11.8"/></symbol><symbol id="payment" viewBox="0 0 62.4 63.6"><g fill="none" stroke-linecap="round" stroke-linejoin="round" stroke-miterlimit="10"><path d="M26.9 45.1c0-2.3.5-4.6 1.3-6.6h-9.8v-6.1h12.2c.7 0 1.5 0 2.1-.1 2.6-2.2 5.8-3.7 9.3-4 .1-.1.2-.1.2-.2 3-2.9 4.5-6.7 4.5-11.3 0-4.6-1.5-8.4-4.5-11.3-2.9-3-6.8-4.5-11.6-4.5H11.3c-.3 0-.6.1-.8.3-.2.2-.3.5-.3.8v22.5h-8c-.3 0-.6.1-.8.3-.3.4-.4.6-.4.9v5.3c0 .3.1.6.3.8.2.2.5.3.8.3h8v6.1h-8c-.3 0-.6.1-.8.3-.2.4-.3.7-.3 1v4.6c0 .3.1.6.3.8s.5.3.8.3h8v6.9c0 .3.1.6.3.8.2.2.5.3.8.3h6c.3 0 .6-.1.8-.3.2-.2.3-.5.3-.8v-6.9h8.4c.2 0 .2-.1.2-.2zM18.5 8.6H30c2.5 0 4.6.7 6.1 2.2 1.6 1.5 2.3 3.4 2.3 5.8s-.8 4.3-2.3 5.8c-1.6 1.5-3.6 2.2-6.1 2.2H18.5v-16z" stroke="#505b68" stroke-width="2"/><path stroke="#08ab8a" stroke-width="3" d="M43.9 34.8v10.5l7.2 5.8"/><circle cx="43.9" cy="45.1" r="17" stroke="#08ab8a" stroke-width="3"/></g></symbol><symbol id="plus" viewBox="0 0 22 22"><style>.st0{opacity:.5;fill:none;stroke:#505b68;stroke-width:3;stroke-linecap:round;stroke-linejoin:round;stroke-miterlimit:10}</style><path class="st0" d="M11 1.5v19m9.5-9.5h-19"/></symbol><symbol id="question" viewBox="0 0 18 18"><style>.st0{opacity:.5;fill:#fff}</style><path class="st0" d="M4.5 1.2C5.9.4 7.4 0 9 0s3.1.4 4.5 1.2c1.4.8 2.5 1.9 3.3 3.3C17.6 5.9 18 7.4 18 9s-.4 3.1-1.2 4.5-1.9 2.5-3.3 3.3c-1.4.8-2.9 1.2-4.5 1.2s-3.1-.4-4.5-1.2C3.1 16 2 14.9 1.2 13.5.4 12.1 0 10.6 0 9s.4-3.1 1.2-4.5C2 3.1 3.1 2 4.5 1.2zm3 9.3h3s.1-.1.2-.1.2-.2.5-.4c.2-.2.4-.4.6-.7.2-.3.3-.6.5-1 .1-.4.2-.9.2-1.4 0-.5-.1-1-.3-1.3-.2-.4-.4-.7-.6-.9s-.6-.4-.9-.5l-.9-.3H9c-1 0-1.9.3-2.6.8-.7.6-1 1.5-1 2.8H8.1v-.1-.2c0-.1 0-.1.1-.1 0 0 0-.1.1-.1l.1-.1h.7c.2 0 .3.1.5.2.1.1.2.2.2.4s0 .4-.1.4c0 .1-.2.2-.4.3h-.2c-.1 0-.3.1-.5.2s-.4.2-.5.4c-.2.1-.3.4-.4.7-.2.3-.2.6-.2 1zm0 1.5v1.5h3V12h-3z"/></symbol><symbol id="reserve" viewBox="0 0 71 69.7"><path class="st2" d="M48.4 52.7v-9.2h7.5c2.9 0 5.2 2.1 5.2 4.6 0 2.5-2.3 4.6-5.2 4.6H45.5M48.4 52.7v7.6M57.5 57.2H45.4" fill="none" stroke="#505b68" stroke-width="2" stroke-linecap="round" stroke-linejoin="round" stroke-miterlimit="10"/><path class="st0" d="M29.2 62c-3-1.3-9.6-4.4-14.6-8.2C9.4 49.9 7 45.1 7 38.5" fill="none" stroke="#08ab8a" stroke-width="2" stroke-linecap="round" stroke-linejoin="round" stroke-miterlimit="10"/><path class="st1" fill="none" stroke="#08ab8a" stroke-width="3" stroke-linecap="round" stroke-linejoin="round" stroke-miterlimit="10" d="M21.5 25l7.7-5.6V51"/><path class="st1" d="M54.7 34.5c0-7.2.3-13.6.1-20-11.1-3.7-16.4-6.5-26.6-13C18.1 8 12.7 10.8 1.6 14.6c-.2 7.6 0 16.3 0 25 0 8.6 3.6 14.5 9.3 18.8 6.2 4.7 14.3 8.2 16.7 9.2.4.2.9.2 1.3 0 1.7-.7 6.1-2.2 10.9-5" fill="none" stroke="#08ab8a" stroke-width="3" stroke-linecap="round" stroke-linejoin="round" stroke-miterlimit="10"/><circle class="st2" cx="53.2" cy="51.9" r="16.7" fill="none" stroke="#505b68" stroke-width="2" stroke-linecap="round" stroke-linejoin="round" stroke-miterlimit="10"/></symbol><symbol id="return" viewBox="0 0 77.9 68.7"><path d="M72.1 51.1c-4.6-1.5-13.2-3.5-13.2-3.5-3.8-2.9-6.8-5.6-9.5-6.7-1.1-.5-4.5-1.6-10.9-1.8-7.5-.3-11.1 0-14 1.9-2 1.2-4.5 2.7-7.4 4.8-.6.4-1 .6-1.7.7-1.4.2-2.1.2-3.4.3-2.7.3-3.9 1.3-4.4 4.9-.3 2-.4 2.8-.5 5.3-.2 3.5.4 4.6 1.6 5.3 1.6.8 4.5 1 5.2 1-.2-.6-.4-1.3-.4-2-.1-3.7 2.8-6.7 6.4-6.9 3.7-.1 6.7 2.8 6.9 6.4 0 .9-.1 1.7-.4 2.5H56c-.2-.6-.4-1.3-.4-2-.1-3.7 2.8-6.7 6.4-6.9s6.7 2.8 6.9 6.4c0 .9-.1 1.7-.4 2.5h3.7c3 0 3.4-1.5 3.8-3s1-4.6 1-4.6.6-2.8-4.9-4.6z" fill="none" stroke="#505b68" stroke-width="2" stroke-miterlimit="10"/><path fill="none" stroke="#08ab8a" stroke-width="3" stroke-linecap="round" stroke-linejoin="round" stroke-miterlimit="10" d="M61.3 13.7H1.5"/><g fill="none" stroke="#08ab8a" stroke-width="3" stroke-linecap="round" stroke-linejoin="round" stroke-miterlimit="10"><path d="M12.4 1.5v6.2M25.1 1.5v6.2M37.7 1.5v6.2M50.3 1.5v6.2"/></g><path fill="none" stroke="#08ab8a" stroke-width="2" stroke-linecap="round" stroke-linejoin="round" stroke-miterlimit="10" d="M24.8 20.1h11.1l-6.7 15.3"/><path d="M59.3 47.8c1.2-1.2 2-2.8 2-4.7V10.8c0-3.6-2.9-6.5-6.5-6.5H8c-3.6 0-6.5 2.9-6.5 6.5v32.3c0 3.6 2.9 6.5 6.5 6.5" fill="none" stroke="#08ab8a" stroke-width="3" stroke-miterlimit="10"/><circle cx="20.1" cy="61.1" r="6.7" fill="none" stroke="#505b68" stroke-width="2" stroke-miterlimit="10"/><path d="M59.3 47.8s-25.1-.7-34.5-1c0 0-3.3.4-.7-1.6l3.2-1.8" fill="none" stroke="#505b68" stroke-width="2" stroke-linecap="round" stroke-miterlimit="10"/><circle cx="62.2" cy="61.1" r="6.7" fill="none" stroke="#505b68" stroke-width="2" stroke-miterlimit="10"/><path d="M72.1 51.1c-4.6-1.5-13.2-3.5-13.2-3.5-3.8-2.9-6.8-5.6-9.5-6.7-1.1-.5-4.5-1.6-10.9-1.8-7.5-.3-11.1 0-14 1.9-2 1.2-4.5 2.7-7.4 4.8-.6.4-1 .6-1.7.7-1.4.2-2.1.2-3.4.3-2.7.3-3.9 1.3-4.4 4.9-.3 2-.4 2.8-.5 5.3-.2 3.5.4 4.6 1.6 5.3 1.6.8 4.5 1 5.2 1-.2-.6-.4-1.3-.4-2-.1-3.7 2.8-6.7 6.4-6.9 3.7-.1 6.7 2.8 6.9 6.4 0 .9-.1 1.7-.4 2.5H56c-.2-.6-.4-1.3-.4-2-.1-3.7 2.8-6.7 6.4-6.9s6.7 2.8 6.9 6.4c0 .9-.1 1.7-.4 2.5h3.7c3 0 3.4-1.5 3.8-3s1-4.6 1-4.6.6-2.8-4.9-4.6z" fill="none" stroke="#505b68" stroke-width="2" stroke-miterlimit="10"/><path fill="none" stroke="#08ab8a" stroke-width="3" stroke-linecap="round" stroke-linejoin="round" stroke-miterlimit="10" d="M61.3 13.7H1.5"/><g fill="none" stroke="#08ab8a" stroke-width="3" stroke-linecap="round" stroke-linejoin="round" stroke-miterlimit="10"><path d="M12.4 1.5v6.2M25.1 1.5v6.2M37.7 1.5v6.2M50.3 1.5v6.2"/></g><path fill="none" stroke="#08ab8a" stroke-width="2" stroke-linecap="round" stroke-linejoin="round" stroke-miterlimit="10" d="M24.8 20.1h11.1l-6.7 15.3"/><path d="M59.3 47.8c1.2-1.2 2-2.8 2-4.7V10.8c0-3.6-2.9-6.5-6.5-6.5H8c-3.6 0-6.5 2.9-6.5 6.5v32.3c0 3.6 2.9 6.5 6.5 6.5" fill="none" stroke="#08ab8a" stroke-width="3" stroke-miterlimit="10"/><circle cx="20.1" cy="61.1" r="6.7" fill="none" stroke="#505b68" stroke-width="2" stroke-miterlimit="10"/><path d="M59.3 47.8s-25.1-.7-34.5-1c0 0-3.3.4-.7-1.6l3.2-1.8" fill="none" stroke="#505b68" stroke-width="2" stroke-linecap="round" stroke-miterlimit="10"/><circle cx="62.2" cy="61.1" r="6.7" fill="none" stroke="#505b68" stroke-width="2" stroke-miterlimit="10"/></symbol><symbol id="save" viewBox="0 0 19 19"><style>.st0{opacity:.5;fill:#fff}</style><path class="st0" d="M1.6 14.3h15.8c.4 0 .8.2 1.1.5.3.3.5.7.5 1.1v1.6c0 .4-.2.8-.5 1.1-.3.3-.7.5-1.1.5H1.6c-.4 0-.8-.2-1.1-.5-.3-.4-.5-.7-.5-1.2v-1.6c0-.4.2-.8.5-1.1.3-.3.7-.4 1.1-.4zM.5 12.7L3.2 1c.1-.2.2-.5.4-.7.2-.2.4-.3.6-.3h10.6c.2 0 .4.1.6.4s.3.5.4.7l2.7 11.6H.5zm13.8 3.1h-1.6v1.6h1.6v-1.6zm3.1 0h-1.6v1.6h1.6v-1.6z"/></symbol></svg>