<?xml version="1.0" encoding="utf-8"?>
<!-- Generator: Adobe Illustrator 16.2.0, SVG Export Plug-In . SVG Version: 6.00 Build 0)  -->
<!DOCTYPE svg PUBLIC "-//W3C//DTD SVG 1.1//EN" "http://www.w3.org/Graphics/SVG/1.1/DTD/svg11.dtd">
<svg version="1.1" id="Слой_1" xmlns="http://www.w3.org/2000/svg" xmlns:xlink="http://www.w3.org/1999/xlink" x="0px" y="0px"
	 width="18.5px" height="17.5px" viewBox="0 0 18.5 17.5" style="enable-background:new 0 0 18.5 17.5;" xml:space="preserve">
<style type="text/css">
<![CDATA[
	.st0{opacity:0.5;fill:#FFFFFF;}
]]>
</style>
<path class="st0" d="M10.8,14.7v1.5c0,0.2-0.1,0.4-0.2,0.5C10.4,16.9,10.3,17,10,17H0.8c-0.2,0-0.4-0.1-0.5-0.2S0,16.4,0,16.2v-1.5
	c0-0.2,0.1-0.4,0.2-0.5s0.3-0.2,0.5-0.2H10c0.2,0,0.4,0.1,0.5,0.2C10.7,14.3,10.8,14.5,10.8,14.7z M17,10v1.5c0,0.2-0.1,0.4-0.2,0.5
	c-0.1,0.1-0.3,0.2-0.5,0.2H0.8c-0.2,0-0.4-0.1-0.5-0.2C0.1,12,0,11.8,0,11.6V10c0-0.2,0.1-0.4,0.2-0.5s0.3-0.2,0.5-0.2h15.5
	c0.2,0,0.4,0.1,0.5,0.2S17,9.8,17,10z M13.9,5.4V7c0,0.2-0.1,0.4-0.2,0.5c-0.1,0.1-0.3,0.2-0.5,0.2H0.8c-0.2,0-0.4-0.1-0.5-0.2
	C0.1,7.4,0,7.2,0,7V5.4C0,5.2,0.1,5,0.2,4.9c0.1-0.2,0.3-0.2,0.5-0.2h12.4c0.2,0,0.4,0.1,0.5,0.2C13.8,5,13.9,5.2,13.9,5.4z
	 M18.5,0.8v1.5c0,0.2-0.1,0.4-0.2,0.5C18.2,3,18,3.1,17.8,3.1h-17C0.6,3.1,0.4,3,0.2,2.9S0,2.5,0,2.3V0.8c0-0.2,0.1-0.4,0.2-0.5
	C0.4,0.1,0.6,0,0.8,0h17c0.2,0,0.4,0.1,0.5,0.2C18.5,0.4,18.5,0.6,18.5,0.8z"/>
<path class="st0" d="M10.8,15.2v1.5c0,0.2-0.1,0.4-0.2,0.5c-0.1,0.1-0.3,0.2-0.5,0.2H0.8c-0.2,0-0.4-0.1-0.5-0.2S0,16.9,0,16.7v-1.5
	c0-0.2,0.1-0.4,0.2-0.5s0.3-0.2,0.5-0.2H10c0.2,0,0.4,0.1,0.5,0.2C10.7,14.8,10.8,15,10.8,15.2z M17,10.5v1.5c0,0.2-0.1,0.4-0.2,0.5
	c-0.1,0.1-0.3,0.2-0.5,0.2H0.8c-0.2,0-0.4-0.1-0.5-0.2C0.1,12.5,0,12.3,0,12.1v-1.5c0-0.2,0.1-0.4,0.2-0.5s0.3-0.2,0.5-0.2h15.5
	c0.2,0,0.4,0.1,0.5,0.2S17,10.3,17,10.5z M13.9,5.9v1.5c0,0.2-0.1,0.4-0.2,0.5c-0.1,0.1-0.3,0.2-0.5,0.2H0.8C0.6,8.2,0.4,8.2,0.2,8
	C0.1,7.9,0,7.7,0,7.5V5.9c0-0.2,0.1-0.4,0.2-0.5c0.1-0.2,0.3-0.2,0.5-0.2h12.4c0.2,0,0.4,0.1,0.5,0.2C13.8,5.5,13.9,5.7,13.9,5.9z
	 M18.5,1.3v1.5c0,0.2-0.1,0.4-0.2,0.5c-0.1,0.1-0.3,0.2-0.5,0.2h-17c-0.2,0-0.4-0.1-0.5-0.2S0,3,0,2.8V1.3c0-0.2,0.1-0.4,0.2-0.5
	c0.1-0.2,0.3-0.2,0.5-0.2h17c0.2,0,0.4,0.1,0.5,0.2C18.5,0.9,18.5,1.1,18.5,1.3z"/>
</svg>
