<?xml version="1.0" encoding="utf-8"?>
<!-- Generator: Adobe Illustrator 16.2.0, SVG Export Plug-In . SVG Version: 6.00 Build 0)  -->
<!DOCTYPE svg PUBLIC "-//W3C//DTD SVG 1.1//EN" "http://www.w3.org/Graphics/SVG/1.1/DTD/svg11.dtd">
<svg version="1.1" id="Слой_1" xmlns="http://www.w3.org/2000/svg" xmlns:xlink="http://www.w3.org/1999/xlink" x="0px" y="0px"
	 width="24px" height="20.3px" viewBox="0 0 24 20.3" style="enable-background:new 0 0 24 20.3;" xml:space="preserve">
<style type="text/css">
<![CDATA[
	.st0{opacity:0.5;fill:#505B68;}
]]>
</style>
<path class="st0" d="M14.8,20c-0.7,0.2-1.3,0.3-1.8,0.3H7.4c-2,0-3.8-0.7-5.2-2.2S0,15,0,12.9V7.4c0-2,0.7-3.8,2.2-5.2
	C3.6,0.7,5.4,0,7.4,0l1.7,0c1.1,0,2.3,0.1,3.6,0.1c1.2,0,1.9,0.1,2.1,0.1v3.4H5.5C5,3.7,4.6,3.9,4.2,4.2C3.9,4.6,3.7,5,3.7,5.5v9.2
	c0,0.5,0.2,0.9,0.5,1.3c0.4,0.4,0.8,0.5,1.3,0.5h9.2V20z M24,10.2l-7.4-6.5v3.7h-5.5v5.5h5.5v3.7L24,10.2z"/>
</svg>
