<?xml version="1.0" encoding="utf-8"?>
<!-- Generator: Adobe Illustrator 16.2.0, SVG Export Plug-In . SVG Version: 6.00 Build 0)  -->
<!DOCTYPE svg PUBLIC "-//W3C//DTD SVG 1.1//EN" "http://www.w3.org/Graphics/SVG/1.1/DTD/svg11.dtd">
<svg version="1.1" id="Слой_1" xmlns="http://www.w3.org/2000/svg" xmlns:xlink="http://www.w3.org/1999/xlink" x="0px" y="0px"
	 width="19px" height="19px" viewBox="0 0 19 19" style="enable-background:new 0 0 19 19;" xml:space="preserve">
<style type="text/css">
<![CDATA[
	.st0{opacity:0.5;fill:#FFFFFF;}
]]>
</style>
<path class="st0" d="M1.6,14.3h15.8c0.4,0,0.8,0.2,1.1,0.5c0.3,0.3,0.5,0.7,0.5,1.1v1.6c0,0.4-0.2,0.8-0.5,1.1
	c-0.3,0.3-0.7,0.5-1.1,0.5H1.6c-0.4,0-0.8-0.2-1.1-0.5C0.2,18.2,0,17.9,0,17.4v-1.6c0-0.4,0.2-0.8,0.5-1.1
	C0.8,14.4,1.2,14.3,1.6,14.3z M0.5,12.7L3.2,1c0.1-0.2,0.2-0.5,0.4-0.7C3.8,0.1,4,0,4.2,0h10.6c0.2,0,0.4,0.1,0.6,0.4
	s0.3,0.5,0.4,0.7l2.7,11.6H0.5z M14.3,15.8h-1.6v1.6h1.6V15.8z M17.4,15.8h-1.6v1.6h1.6V15.8z"/>
</svg>
